<svg xmlns="http://www.w3.org/2000/svg" version="1.1" xmlns:xlink="http://www.w3.org/1999/xlink" xmlns:svgjs="http://svgjs.com/svgjs" width="4096" height="1028" preserveAspectRatio="none" viewBox="0 0 4096 1028"><g mask="url(&quot;#SvgjsMask1064&quot;)" fill="none"><rect width="4096" height="1028" x="0" y="0" fill="rgba(228, 228, 228, 1)"></rect><path d="M 0,119 C 164,163 492,319 820,339 C 1148,359 1312,231.6 1640,219 C 1968,206.4 2132,300 2460,276 C 2788,252 2952.8,70 3280,99 C 3607.2,128 3932.8,356.6 4096,421L4096 1028L0 1028z" fill="rgba(188, 188, 188, 1)"></path><path d="M 0,560 C 204.8,603.4 614.4,769.4 1024,777 C 1433.6,784.6 1638.4,563.4 2048,598 C 2457.6,632.6 2662.4,941.2 3072,950 C 3481.6,958.8 3891.2,703.6 4096,642L4096 1028L0 1028z" fill="rgba(149, 149, 149, 1)"></path></g><defs><mask id="SvgjsMask1064"><rect width="4096" height="1028" fill="#ffffff"></rect></mask></defs></svg>