<svg version="1.1" id="Layer_1" xmlns="http://www.w3.org/2000/svg" xmlns:xlink="http://www.w3.org/1999/xlink" x="0px" y="0px"
	 width="100%" viewBox="0 0 864 864" enable-background="new 0 0 864 864" xml:space="preserve">
<path fill="#000000" opacity="1.000000" stroke="none" 
	d="
M301.428467,865.000000 
	C298.926605,856.788391 297.623993,848.386353 294.360748,840.471619 
	C292.608948,836.222656 294.978241,831.644043 299.506195,830.105896 
	C302.966766,828.930420 306.541412,828.030518 310.123688,827.290894 
	C313.577393,826.577759 315.356445,824.633484 315.567352,821.187256 
	C316.025421,813.701477 316.848877,806.269775 318.590637,798.956360 
	C319.037628,797.079529 318.674805,795.345154 317.282471,793.863525 
	C307.392578,783.339355 297.157990,773.080750 290.943359,759.589417 
	C287.407318,780.075317 286.019592,800.076904 297.803619,818.700928 
	C292.418396,816.863892 290.935730,811.507263 287.996094,807.566284 
	C284.908417,803.426819 282.248199,798.971313 280.578583,794.026794 
	C278.877045,788.987610 277.252502,783.922546 275.617249,778.938904 
	C261.872498,798.641785 248.101700,818.265991 222.869202,824.736328 
	C221.214676,822.805359 222.467789,821.499512 223.626511,820.339050 
	C233.421219,810.529663 236.446671,797.888855 237.517273,784.852539 
	C238.417572,773.889832 237.193283,763.121338 231.611053,752.975525 
	C226.803528,744.237854 223.754059,734.619080 221.302322,724.893921 
	C220.120255,720.205017 215.025024,717.411438 215.111252,711.884827 
	C213.662018,716.321350 212.754913,720.956482 212.658463,725.090881 
	C212.294678,740.686035 210.529831,756.434753 214.265182,771.876282 
	C215.817413,778.293152 217.569321,784.845154 224.901199,787.891724 
	C222.712311,790.244202 220.597504,789.178528 218.584641,788.891479 
	C214.716309,788.339783 210.981400,787.203979 208.100082,784.552551 
	C197.861755,775.131287 186.058273,766.876648 183.173523,751.799805 
	C177.795929,754.925415 176.853699,762.000977 180.295715,772.373047 
	C177.239471,772.299622 175.895569,770.104736 174.521210,768.207764 
	C164.337997,754.152100 158.919846,738.162964 155.744370,721.300354 
	C151.062576,696.438538 153.311737,672.015930 160.426529,647.981506 
	C161.445450,647.519897 162.125061,647.968506 162.772522,648.527039 
	C163.677567,649.307861 164.669693,650.163818 165.863953,649.312622 
	C167.227844,648.340332 166.766922,646.898315 166.278702,645.669250 
	C164.312897,640.720764 162.609772,635.629761 160.199890,630.902222 
	C147.282074,605.560486 142.530579,578.427734 141.751297,550.300781 
	C140.938049,520.947266 143.728149,491.700531 144.011566,462.383118 
	C144.032089,460.260132 144.448013,458.140930 144.355545,455.959778 
	C142.659256,458.612793 142.719040,461.716583 142.367828,464.627594 
	C139.433701,488.945435 138.762894,513.424500 137.157074,537.840271 
	C135.552414,562.238708 132.400360,586.537292 130.892563,610.939392 
	C129.931412,626.494202 128.354279,641.814148 123.096802,656.494812 
	C116.561432,674.743835 108.111046,691.908569 95.944138,707.346741 
	C89.801071,715.141418 82.109894,720.426453 73.098190,726.489624 
	C77.715271,727.100708 80.955620,727.006531 84.141251,726.272400 
	C94.031921,723.993286 102.640205,719.576477 110.572693,712.940857 
	C128.569672,697.886169 141.395203,679.419678 149.474792,657.582092 
	C151.234711,652.825378 151.860535,647.643677 152.938782,642.642700 
	C153.364624,640.667542 153.996994,638.875061 156.455276,639.613708 
	C158.295547,640.166687 159.062057,641.696472 158.215912,643.588623 
	C152.445374,656.492371 148.833023,670.297424 141.623199,682.611816 
	C136.189743,691.892151 129.307861,699.897766 121.943375,707.683960 
	C116.287231,713.663940 110.367615,718.971924 103.066711,722.804321 
	C92.951469,728.114014 82.211388,730.873230 70.859566,730.016846 
	C63.662022,729.473877 57.108402,732.186951 50.162621,732.746765 
	C43.044312,733.320374 34.496048,730.161804 33.431248,723.588379 
	C37.924198,726.173523 41.819462,729.424438 47.153667,728.749207 
	C67.133598,726.220093 84.395760,719.171204 95.569778,701.088257 
	C104.625793,686.432861 112.045975,670.979187 118.577103,655.101929 
	C123.045197,644.239929 123.975662,632.484619 125.564522,620.994324 
	C129.941025,589.344421 132.807449,557.562012 134.224472,525.608704 
	C134.896988,510.443542 132.799866,495.313904 134.668182,480.189636 
	C135.827835,470.802155 136.636780,461.371399 137.699860,451.018005 
	C134.132965,454.771149 132.747330,458.853851 130.743530,462.471191 
	C117.803200,485.831787 103.033569,507.923340 86.788330,529.141296 
	C79.480194,538.686462 71.237923,546.833984 61.725864,553.967407 
	C58.841793,556.130249 56.531765,556.489624 53.850056,553.866516 
	C51.335293,551.406738 48.480145,549.379272 45.066540,548.281677 
	C41.656025,547.185181 41.671116,545.377319 44.228676,543.380371 
	C46.085800,541.930359 47.835232,539.969238 50.596958,540.320374 
	C51.126060,542.610352 48.673389,543.218567 48.683033,545.551880 
	C50.713409,547.077209 53.082485,548.816711 55.404251,550.617249 
	C56.683628,551.609375 57.718128,551.413757 58.957890,550.439758 
	C71.586395,540.518616 83.373909,529.805725 92.170883,516.160461 
	C94.193115,513.023804 93.694771,509.393677 94.644897,506.059418 
	C95.094963,504.479950 94.894768,502.388733 96.677383,501.737701 
	C104.728096,498.797577 108.374680,491.528778 112.558220,485.121948 
	C122.208359,470.343323 131.143936,455.117737 138.759308,439.145020 
	C140.800949,434.862793 140.901001,430.485321 140.907486,425.993896 
	C140.909729,424.442810 140.639328,422.868378 138.781647,422.497833 
	C137.174606,422.177277 136.602402,423.565491 135.718628,424.571930 
	C120.645622,441.736420 112.433044,463.218903 99.649673,481.799103 
	C89.656364,496.324097 79.965004,511.092377 68.699524,524.701294 
	C66.626251,527.205811 64.047523,529.291931 61.258415,531.214844 
	C61.511913,527.869751 63.375011,525.524597 65.295532,523.130066 
	C90.317932,491.931885 111.416763,458.261658 128.019623,421.880890 
	C135.844650,404.734375 140.721909,386.486847 146.131104,368.467194 
	C146.509277,367.207397 147.076752,365.932281 145.880707,364.649384 
	C143.466370,364.275543 142.504410,366.395111 141.188217,367.698822 
	C129.344681,379.429749 117.453606,391.111633 103.859161,400.854462 
	C98.022079,405.037842 92.085388,409.002838 84.241226,408.280548 
	C77.607430,407.669678 72.722237,404.397095 70.069687,398.646362 
	C65.561287,388.872101 65.141151,378.388580 66.200371,367.801697 
	C67.083717,358.972626 72.311386,352.925415 78.859055,347.670258 
	C96.389519,333.600372 116.417130,325.068085 138.366074,320.784821 
	C139.019318,320.657318 139.689026,320.611572 140.339737,320.474182 
	C150.611771,318.305908 151.001343,317.649780 148.495621,307.466736 
	C145.464035,295.146515 146.016907,282.554504 147.042450,270.181580 
	C149.122879,245.081436 157.160248,221.630203 170.318024,200.187256 
	C179.710068,184.881256 188.983383,169.449478 200.908600,155.810394 
	C205.144730,150.965454 208.434433,145.213150 211.690063,139.604462 
	C226.390121,114.279709 247.175659,94.922783 270.863495,78.260773 
	C286.936432,66.955086 302.417999,54.786461 320.495392,46.606834 
	C341.280273,37.202152 363.311584,32.390579 385.432465,27.337303 
	C401.229126,23.728731 416.825348,25.361462 432.501190,25.044674 
	C443.497681,24.822451 454.408783,26.722849 464.909943,30.318388 
	C467.738007,31.286694 470.601807,32.173157 473.011475,34.103775 
	C475.682495,36.243786 478.354889,35.925106 481.259003,34.225842 
	C497.232849,24.879160 513.895813,25.328539 530.774780,31.229811 
	C551.647156,38.527256 570.751831,49.382538 589.713928,60.581341 
	C611.987427,73.735832 629.138794,92.050552 643.982117,112.856796 
	C664.125122,141.091797 679.666443,171.660477 692.235779,203.988098 
	C702.878662,231.361008 711.159485,259.421295 719.323059,287.541626 
	C724.383545,304.972809 726.541260,323.026886 729.039612,340.963928 
	C732.508728,365.870636 735.400269,390.854950 734.209778,416.067291 
	C733.614014,428.683838 732.038513,441.252106 731.341980,453.866302 
	C730.246948,473.696533 733.610657,493.483429 732.996155,513.228088 
	C732.028015,544.332947 729.890625,575.480225 717.082458,604.625488 
	C709.932068,620.896118 700.185303,635.270264 685.695190,645.909424 
	C682.265259,648.427734 681.193359,650.747070 682.140442,655.049927 
	C688.413391,683.549194 701.090271,708.203430 723.819641,727.198547 
	C732.982300,734.855774 742.925537,739.133362 755.063904,736.651489 
	C756.576538,736.342224 758.577454,735.135803 759.587646,737.112854 
	C760.708740,739.306702 758.533813,740.478027 757.172119,741.436157 
	C740.553650,753.130249 722.850525,756.088257 703.889038,747.631348 
	C698.844910,745.381653 694.353210,742.205872 689.969177,738.848511 
	C686.448547,736.152283 684.482361,737.071594 684.347351,741.549927 
	C684.151611,748.043823 684.256226,754.548035 684.297852,761.047424 
	C684.371277,772.524231 682.055359,783.557190 677.854370,794.168396 
	C675.661865,799.706360 672.730957,804.863098 666.153687,807.316223 
	C678.392090,793.139099 675.062195,776.953796 673.084656,760.876892 
	C668.008484,781.382812 657.349304,798.176514 640.031250,812.364685 
	C642.570740,788.251465 644.407104,765.421082 633.009094,743.091064 
	C627.456299,748.146057 622.031250,750.956604 621.805054,759.338196 
	C621.594116,767.151062 622.206299,775.884033 618.897522,782.893005 
	C610.678772,800.303040 601.726562,817.492676 587.719849,831.283264 
	C587.014526,831.977783 586.357056,832.775635 584.233459,832.497925 
	C583.432983,828.191467 587.303040,825.783447 588.924988,822.636353 
	C590.751160,819.093018 592.729614,815.661377 593.164490,811.373962 
	C589.112976,816.970642 584.375244,821.834595 578.865479,825.919800 
	C577.539917,826.902588 577.703003,828.168152 578.509644,829.460571 
	C583.622986,837.653259 588.662720,845.892883 593.853455,854.036133 
	C597.117493,859.156677 602.499878,861.631958 607.783081,864.728394 
	C585.645752,865.000000 563.291565,865.000000 540.701538,864.735718 
	C544.870728,859.246643 544.115967,853.644897 541.167908,848.241516 
	C539.702148,845.554810 538.934143,842.770142 537.995667,839.937439 
	C533.949951,827.725891 532.334900,814.987793 529.562866,802.503235 
	C529.015869,800.039551 527.884827,798.103699 526.057861,796.151245 
	C521.757751,791.555908 516.183105,790.841125 510.608917,790.254150 
	C506.796936,789.852661 503.073242,790.213257 500.191406,786.783386 
	C498.976410,785.337341 496.671844,785.833801 494.973389,786.549133 
	C489.400940,788.896057 483.726349,790.404785 477.587189,790.358276 
	C475.571594,790.342957 473.424133,791.490723 471.548279,792.499512 
	C467.009308,794.940308 462.576141,797.580933 458.134705,800.199341 
	C452.121216,803.744568 447.569244,814.182861 448.774445,821.532593 
	C454.490479,818.143860 455.309021,818.480652 457.284576,825.310974 
	C458.022827,827.863464 458.494202,830.492188 459.196503,833.056213 
	C462.061523,843.516479 463.058502,854.253113 464.000000,865.000000 
	C460.969391,865.000000 457.938812,865.000000 454.359131,864.637207 
	C447.561066,850.206421 446.703339,834.726685 443.258026,818.811401 
	C436.099365,828.819275 438.348846,838.567200 438.735809,848.009216 
	C438.977570,853.908752 438.518555,860.111023 443.000000,865.000000 
	C426.312439,865.000000 409.624878,865.000000 392.557373,864.664490 
	C395.030396,858.321167 399.436005,853.337585 403.448181,848.206970 
	C389.121643,834.634827 363.470581,826.193420 344.536530,828.386841 
	C340.959839,828.801208 339.805023,830.742065 339.378052,833.903137 
	C337.976776,844.276611 336.467651,854.635498 335.000000,865.000000 
	C334.250000,865.000000 333.500000,865.000000 332.349365,864.573975 
	C332.992920,854.045410 334.719269,844.046631 336.611603,834.077332 
	C337.227173,830.834473 335.852753,828.951660 332.955536,827.955994 
	C330.097046,826.973633 327.610413,827.425110 326.257843,830.413696 
	C325.652191,831.751892 325.283569,833.261475 325.125305,834.727600 
	C324.036469,844.813293 323.031769,854.908142 322.000000,865.000000 
	C319.629425,865.000000 317.258881,865.000000 314.405151,864.539551 
	C313.868683,855.066833 314.753021,846.145630 316.467377,837.299316 
	C316.878998,835.175110 317.442932,832.862122 315.430939,831.258484 
	C313.440643,829.672241 311.713745,831.848145 309.840057,832.001648 
	C307.464752,832.196228 307.156769,835.967346 304.460510,834.835205 
	C307.322571,844.817749 305.636078,855.047913 307.000000,865.000000 
	C305.285645,865.000000 303.571289,865.000000 301.428467,865.000000 
M415.720886,368.930145 
	C421.836182,366.425934 423.113037,363.725464 421.146942,356.677429 
	C417.027405,341.909790 413.791687,326.948425 411.137177,311.857758 
	C410.730469,309.545380 410.001251,307.073151 412.211487,304.631134 
	C412.895935,305.595642 413.365936,306.240112 413.816589,306.897858 
	C414.296021,307.597656 414.803802,308.236938 416.858124,308.051025 
	C418.716644,297.456207 416.244507,286.889282 414.865112,275.938354 
	C402.596191,295.035004 385.673645,311.300598 381.832092,335.691315 
	C383.187531,335.216644 383.794769,335.064697 384.344757,334.795715 
	C385.001678,334.474396 385.480774,333.380524 387.159912,335.269470 
	C371.028412,362.726013 360.076752,392.301849 359.667389,425.177429 
	C366.237000,425.087677 370.178162,420.828857 374.549164,417.749939 
	C377.728394,415.510529 374.194427,411.469574 375.751129,408.179749 
	C378.574738,408.278015 380.851013,409.792267 383.332947,410.595367 
	C388.051697,412.122253 392.593597,417.452606 397.743256,411.366425 
	C397.906677,411.173279 398.378113,411.203461 398.707764,411.193939 
	C404.542023,411.024902 410.350220,411.214630 416.047577,412.639160 
	C416.451782,412.740234 416.753540,413.251160 416.985596,413.463928 
	C417.397125,415.265320 414.486084,414.812103 415.156036,416.645905 
	C416.419189,418.112640 418.212189,418.501007 419.979431,419.009949 
	C438.612518,424.376648 453.796173,435.148956 466.881226,449.138153 
	C468.957977,451.358398 471.413666,453.698212 469.269196,457.733185 
	C465.605164,456.511261 462.320007,453.280762 458.101807,455.813812 
	C457.215729,456.345917 456.033081,455.087921 455.245239,454.170441 
	C449.555115,447.543549 441.674713,444.047913 434.360962,439.796356 
	C429.674957,437.072296 428.201050,438.225433 428.197021,443.631927 
	C428.191803,450.701111 429.501160,457.825531 425.454498,464.568970 
	C423.697235,467.497314 422.677399,469.111969 419.171722,467.468658 
	C417.765717,466.809540 415.848145,466.664581 414.856506,468.678009 
	C414.884247,472.870087 422.201660,472.165100 420.675110,477.470642 
	C419.573242,481.300079 417.108765,484.375153 415.018402,487.650787 
	C417.126007,488.938782 419.728485,486.650116 421.227783,489.331055 
	C419.677582,491.532776 416.318909,490.915894 415.061066,493.304565 
	C413.730469,495.831329 412.088440,496.293518 409.940857,494.350586 
	C407.843323,492.452911 407.672913,490.798279 409.863953,488.506531 
	C413.032257,485.192566 414.163452,480.690155 412.859161,476.453278 
	C411.713440,472.731354 411.219025,469.681396 413.014832,465.991699 
	C414.788025,462.348511 411.366943,460.648346 408.891571,459.170776 
	C405.798401,457.324402 405.405060,460.313385 404.486481,462.115051 
	C403.462585,464.123291 403.455963,466.953949 399.880676,467.695496 
	C401.290466,462.022797 397.305298,460.465363 393.878845,459.131714 
	C389.074310,457.261505 389.801575,463.414917 387.031647,464.142273 
	C386.861328,466.669495 389.610016,467.583527 389.167267,470.043793 
	C386.681915,470.425415 385.880127,468.099609 384.346558,467.089447 
	C381.953644,465.513245 382.575928,460.965485 379.346863,460.764313 
	C376.304108,460.574799 374.904541,464.570282 371.937531,465.444336 
	C371.627228,465.535736 371.356567,465.765228 371.070984,465.936432 
	C368.694885,467.361053 368.040619,469.095001 369.399200,471.773621 
	C371.374573,475.668213 373.689819,479.262848 376.588684,482.534973 
	C380.900574,487.402069 380.505219,489.062531 374.348969,492.628082 
	C372.438934,490.548889 372.485931,487.544312 370.757874,485.210693 
	C368.550201,482.229370 365.784851,481.540283 362.642670,480.543640 
	C357.129150,478.794769 355.822906,471.802673 350.649780,469.787170 
	C343.487793,466.996765 341.209595,460.837555 338.595795,454.672974 
	C337.331177,451.690552 335.037933,449.601227 331.813965,447.572754 
	C328.400177,455.213501 329.928894,463.239044 328.408752,470.867981 
	C323.614380,462.796417 319.964508,454.441223 317.712799,445.578461 
	C308.994781,411.263794 310.871765,376.549500 314.283752,341.832703 
	C316.198578,322.349182 321.942413,303.695648 327.836395,285.153107 
	C334.186340,265.176025 340.714417,245.236023 349.436768,226.117416 
	C350.063995,224.742523 350.308685,222.932175 352.296722,222.358917 
	C352.679352,225.095078 351.509796,227.332092 350.650848,229.637375 
	C335.522552,270.239868 323.150330,311.393890 319.780365,355.031158 
	C317.697449,382.003265 317.163879,408.875153 318.402649,435.821014 
	C318.712250,442.555878 321.345734,448.945770 324.292633,455.179077 
	C324.825806,452.716248 325.283783,450.199829 324.733276,447.927795 
	C323.473633,442.728973 324.132874,438.415314 325.816498,432.985199 
	C330.062225,419.291687 333.212189,405.033600 331.738007,390.303833 
	C331.276001,385.687561 331.393097,380.944672 331.861816,376.322266 
	C332.384979,371.162567 331.934143,365.775940 334.480927,359.818634 
	C335.834717,364.718170 334.284912,368.441071 334.280212,372.196259 
	C334.259003,389.185730 333.957458,406.163513 335.243469,423.141449 
	C336.133698,434.894165 336.934387,435.816101 348.288422,433.599365 
	C352.879669,432.702972 355.751007,429.287170 355.897217,424.578400 
	C356.140228,416.750977 356.832153,408.956055 358.109039,401.235596 
	C363.274292,370.003784 374.480194,340.504456 385.374542,311.062500 
	C393.672974,288.636047 404.585449,267.176422 414.359436,245.297592 
	C414.829376,244.245712 415.890228,243.175140 415.036499,242.093872 
	C412.364807,238.710220 414.122681,235.372833 415.098083,232.143845 
	C416.299988,228.165192 418.213043,224.393448 419.310150,220.392807 
	C421.291565,213.167343 426.352600,207.327438 427.687744,199.727631 
	C430.309570,184.803421 434.492950,170.240417 439.712219,156.002411 
	C440.477234,153.915482 440.741852,151.312866 443.330627,150.050217 
	C444.016632,151.853104 443.161194,152.996140 442.786224,154.226471 
	C439.923889,163.618347 436.746552,172.928177 434.268036,182.420380 
	C427.697174,207.585129 424.222046,233.124466 422.740814,259.185455 
	C421.631958,278.694946 421.611389,298.059540 422.311554,317.510254 
	C422.731628,329.179688 425.074524,340.603760 426.505768,352.143433 
	C426.689728,353.626495 427.313080,355.154602 429.057800,355.486053 
	C430.614807,355.781799 431.384308,354.489166 432.279480,353.512482 
	C439.184235,345.978882 444.495178,337.310699 450.041534,328.795563 
	C457.609467,317.176849 462.624359,305.038727 462.788422,290.680298 
	C463.142517,259.695953 467.354553,228.988510 471.148743,198.277267 
	C471.535828,195.144028 471.732330,191.804779 474.430786,189.293274 
	C470.328522,224.616928 466.104248,259.874420 465.784058,295.528412 
	C478.131317,269.695587 486.008270,242.370697 494.860138,215.459076 
	C481.619629,271.949097 465.292999,327.059845 422.459076,369.912109 
	C424.289154,370.811249 424.988190,369.897614 425.778778,369.388275 
	C440.496155,359.905731 454.409424,349.702850 466.370758,336.524200 
	C489.139801,311.438019 503.512817,282.360138 511.714417,249.830276 
	C516.491150,230.884613 516.184998,211.635193 515.742798,192.333557 
	C515.456177,179.822495 514.048828,167.468475 511.941895,155.146927 
	C511.100372,150.225510 508.979034,145.490967 509.101166,139.848251 
	C511.525848,141.698105 511.697632,143.921844 512.253967,145.955383 
	C517.253174,164.229095 518.014282,183.039337 519.534790,201.777771 
	C521.140564,221.566452 519.399597,240.966248 514.333801,260.123047 
	C510.911774,273.063873 505.405823,285.162750 499.640808,297.171722 
	C496.338715,304.050323 494.658081,311.753326 489.525452,317.695221 
	C482.345673,326.007141 475.850189,334.939636 467.537384,342.233795 
	C465.683899,343.860199 464.214661,345.919373 464.473572,348.273132 
	C465.163696,354.546173 463.541687,360.804871 465.012482,367.147675 
	C465.772919,370.427124 467.004578,371.520294 470.343872,370.962463 
	C469.968842,375.851135 467.561218,379.804993 468.928864,384.583527 
	C472.869873,398.353149 476.925262,412.064636 482.187744,425.395142 
	C482.633972,426.525513 482.625031,428.040863 484.796661,428.609253 
	C485.295776,410.075439 483.908722,391.633820 486.984924,373.360596 
	C488.562286,390.961273 493.988647,407.350586 500.232300,424.343781 
	C505.118378,419.947845 504.283936,414.187073 508.011383,409.506165 
	C507.531128,416.883331 503.084717,422.360535 504.052368,429.088440 
	C509.697784,424.001709 514.099426,417.938263 517.372803,411.388702 
	C547.595337,350.918060 556.723022,287.582947 542.615845,221.104233 
	C545.634644,225.940231 548.720215,230.594055 550.351501,236.241806 
	C555.058472,252.537796 553.870605,269.588745 557.182251,286.048920 
	C558.527161,292.733612 557.530762,299.186401 554.804138,305.551178 
	C553.396790,308.836365 552.127136,312.438416 552.230713,316.167969 
	C552.775940,335.811127 553.479309,355.450317 553.936401,375.095306 
	C554.052124,380.068787 555.871338,385.118378 554.350525,389.974426 
	C552.198364,396.846313 551.319519,403.964142 549.717468,410.933380 
	C548.959595,414.230225 547.302673,417.811432 549.052612,421.472900 
	C552.149780,420.971527 552.889893,418.571625 553.814636,416.537689 
	C558.017456,407.294281 562.219299,398.058533 566.153687,388.684540 
	C575.878662,365.513733 580.382996,341.349274 582.017578,316.419495 
	C583.250793,297.610901 579.745911,279.118866 578.636658,260.494904 
	C576.550476,225.468903 566.704956,192.177170 550.091553,161.054153 
	C547.498108,156.195801 545.413513,151.065826 543.175659,146.238388 
	C545.983337,144.361282 547.465637,147.323318 549.114563,146.460266 
	C553.688049,142.503860 554.395386,137.831955 550.914124,132.265350 
	C555.281799,133.442047 555.220520,133.473190 556.848328,136.675812 
	C565.298523,153.301102 569.822693,171.218475 574.251404,189.176971 
	C577.120300,200.810349 580.928284,212.409286 580.079956,224.482620 
	C579.660889,230.446793 580.237549,235.972412 581.605469,241.599411 
	C582.115967,243.698975 582.744751,245.770233 583.236145,247.873901 
	C585.637451,258.153687 584.256958,268.943390 586.487671,279.068573 
	C590.855591,298.894318 590.838562,319.477356 597.392639,338.889893 
	C601.236328,350.274384 601.734253,362.442749 605.152466,373.964966 
	C606.235352,377.615295 607.814575,379.410065 611.818176,378.832306 
	C613.746582,378.554047 616.018433,378.069641 617.872314,379.959442 
	C615.938171,381.780670 613.673828,381.774628 611.655884,382.400665 
	C609.469604,383.078949 608.162476,384.276611 608.823120,386.806580 
	C610.630920,393.729736 612.463806,400.647125 614.175354,407.594208 
	C614.862000,410.381195 616.812073,410.619293 619.130493,410.633270 
	C621.626709,410.648315 622.745789,409.320343 623.083557,407.045197 
	C623.302856,405.567810 623.489685,404.084625 623.748596,402.614197 
	C625.495422,392.692169 624.248230,382.680969 624.588257,372.716003 
	C624.894531,363.741425 625.018188,354.748779 623.905762,345.768524 
	C623.387756,341.586884 623.817200,337.287872 623.817200,333.042084 
	C626.065308,339.395264 627.339905,345.933136 627.040039,352.458130 
	C626.313354,368.268982 632.788818,382.360413 636.927063,397.007538 
	C638.006775,400.829102 640.160645,404.343567 641.287537,408.156769 
	C641.940063,410.364777 645.410583,410.173615 644.897888,412.390137 
	C643.456665,418.621338 646.821350,424.078125 647.197388,429.956177 
	C647.482544,434.412018 649.339722,437.001343 653.761658,438.052216 
	C655.679688,438.507996 658.643677,438.425720 658.769592,441.289246 
	C658.892456,444.083282 656.257690,444.901764 654.157104,445.907440 
	C651.742310,447.063507 650.180481,448.425140 650.739380,451.675201 
	C653.696289,468.871094 652.310730,486.231232 652.089355,503.518799 
	C652.023376,508.670624 651.356445,514.212952 648.231140,519.069092 
	C646.826599,517.769287 647.429749,516.782654 647.487915,515.829346 
	C648.024170,507.029541 649.011780,498.250153 648.732483,489.412964 
	C648.679993,487.752930 648.798645,485.737793 646.823059,485.219727 
	C644.751465,484.676544 643.977783,486.690338 643.268677,488.086365 
	C640.932129,492.686554 639.002502,497.505615 636.485474,501.999115 
	C633.007935,508.207184 635.454163,512.992249 639.521423,517.580811 
	C640.625244,518.826172 641.828552,519.984985 642.907349,521.250671 
	C644.470703,523.084839 645.616333,525.209839 645.166260,527.655334 
	C642.544861,541.898254 647.283508,556.665833 642.075378,570.723389 
	C641.801086,571.463806 641.763367,572.391479 641.919067,573.171326 
	C642.273315,574.945801 642.488525,576.942871 644.568298,577.651245 
	C646.705872,578.379395 647.940186,576.897461 649.217163,575.527527 
	C654.136169,570.250366 657.790955,564.150696 661.379089,557.919922 
	C671.803894,539.816711 680.552612,521.008972 686.695557,501.013275 
	C687.620728,498.001648 688.825134,495.062775 690.085876,492.171112 
	C691.263245,489.470825 691.501587,486.324219 694.315552,483.238739 
	C689.792603,513.453796 675.213501,538.721191 662.080505,565.554321 
	C681.733459,552.362122 692.348145,533.248108 703.512878,514.545166 
	C694.247864,535.978882 681.369141,554.857849 662.625610,571.131348 
	C667.040405,570.379333 669.012695,568.406616 671.268799,567.073303 
	C673.525024,565.739990 675.338867,563.678467 677.431763,562.045105 
	C702.115173,542.780334 714.785645,516.154541 722.776611,486.925751 
	C729.023438,464.076660 728.899902,440.415161 729.479187,416.986664 
	C730.059509,393.516479 728.313904,370.136414 725.224915,346.766968 
	C723.085693,330.583344 721.054626,314.444580 717.462463,298.522186 
	C713.508118,280.993927 706.382935,264.450653 701.458923,247.221558 
	C700.407349,243.542236 699.174133,239.914612 698.014160,236.266510 
	C691.035767,214.319672 681.986328,193.182526 672.330872,172.330444 
	C665.598206,157.790451 659.677673,142.600769 645.744141,132.665054 
	C642.199158,130.137177 640.047546,125.860001 637.747742,121.929420 
	C635.949829,118.856697 638.204895,115.923843 636.973694,113.332451 
	C634.772461,108.699394 632.744507,103.895752 628.816284,100.296585 
	C621.110352,93.236153 614.522339,85.131905 606.260254,78.494232 
	C591.645447,66.752815 576.468262,56.066677 559.537292,48.042145 
	C556.135132,46.429657 552.777710,43.632900 548.271057,44.616123 
	C547.948547,48.619862 545.352722,52.921417 549.689270,55.890480 
	C554.011902,58.849964 554.427368,63.566132 555.945129,67.768051 
	C556.979065,70.630722 561.899231,75.627113 564.765747,75.230194 
	C567.893005,74.797150 570.151306,72.554802 570.967041,69.491432 
	C572.059265,65.389961 574.029724,66.010376 576.800903,67.775505 
	C578.920593,69.125732 579.367676,71.885880 581.174500,73.072083 
	C586.011719,76.247810 584.274658,79.137672 581.014343,81.637077 
	C576.891479,84.797676 578.272400,86.804749 581.703430,89.183945 
	C588.134338,93.643181 594.713074,97.923538 600.572327,103.149071 
	C602.062683,104.478226 604.009216,105.679771 604.035400,108.643135 
	C599.254395,106.829987 596.343201,103.243301 592.780640,100.640938 
	C585.455383,95.290100 576.770386,92.401764 569.264832,87.518028 
	C552.380249,76.531425 533.792053,69.990723 514.356506,65.638268 
	C509.087036,64.458206 503.630463,62.652725 498.120789,63.904953 
	C485.901428,66.682167 479.056854,75.456528 474.476196,86.296951 
	C473.211090,89.290894 471.755066,91.885880 469.124268,94.383575 
	C466.395416,92.152275 463.567780,89.946365 459.737579,92.036674 
	C459.810486,94.252022 460.894501,95.898468 461.998596,97.560089 
	C462.483948,98.290512 462.615631,99.228592 461.838562,99.802437 
	C461.396973,100.128548 460.363800,100.334969 460.063385,100.068817 
	C455.375824,95.916351 448.290192,96.576927 443.877563,91.501938 
	C440.441376,87.549950 435.156982,88.125687 430.275391,88.074791 
	C426.496918,88.035400 426.101990,91.400955 424.164154,93.223297 
	C423.087524,94.235764 421.788513,95.038399 420.512695,95.807877 
	C414.809021,99.247925 409.143463,102.758766 403.343292,106.029755 
	C388.642548,114.320168 375.846436,124.617805 366.573425,139.019821 
	C363.043945,144.501480 358.065125,148.798492 352.608765,152.585571 
	C352.966797,150.473221 353.698334,148.659927 354.670898,146.986786 
	C362.337036,133.798294 372.817841,122.736496 382.443207,111.082642 
	C393.531555,97.657448 406.581970,86.214668 422.332977,78.332146 
	C425.773682,76.610260 429.565155,73.621498 433.431091,78.067749 
	C433.926971,78.638031 435.394379,78.732796 436.289490,78.523926 
	C440.562042,77.526901 444.522186,78.277977 448.410889,80.124146 
	C450.498108,81.115051 452.325165,81.026077 452.987518,78.245262 
	C455.697052,66.869873 462.306641,57.702938 469.751343,49.067505 
	C472.602692,45.760117 471.724243,43.044601 469.166992,40.293625 
	C467.634735,38.645294 465.579834,37.896969 463.507294,37.247787 
	C440.092468,29.913507 416.220032,28.840187 391.987305,31.720522 
	C385.491852,32.492577 381.452240,36.297234 378.118927,41.178448 
	C376.356995,43.758579 375.115479,46.754993 374.002319,49.700752 
	C372.808502,52.860027 370.700195,54.540730 367.472534,55.145615 
	C360.194672,56.509548 354.910095,53.397301 350.623199,47.854633 
	C348.416718,45.001789 345.972992,42.440765 341.832825,43.699295 
	C330.500702,47.144070 319.274872,50.702923 309.913849,58.542820 
	C303.635010,63.801376 297.491852,69.538467 288.708313,70.540764 
	C287.617340,70.665245 286.513519,71.367050 285.574158,72.026955 
	C271.267090,82.077888 256.877625,92.022415 244.258987,104.244789 
	C235.269852,112.951660 225.888458,121.605591 220.050095,132.657394 
	C213.011703,145.980759 204.807358,158.362518 195.594589,170.171890 
	C182.437958,187.036713 170.656265,204.728073 162.265778,224.523163 
	C157.627014,235.467072 155.259048,246.886841 153.004501,258.551575 
	C150.179688,273.166748 148.096985,287.339783 153.097977,301.743683 
	C153.597946,303.183655 153.604752,304.632233 153.509521,306.164215 
	C153.076660,313.127350 155.922745,316.442871 162.925873,315.560883 
	C169.569016,314.724304 174.255707,317.393982 178.362793,321.764923 
	C180.577774,324.122253 182.760788,324.600830 185.887131,324.214417 
	C194.995392,323.088715 203.946472,321.170715 212.943787,319.471283 
	C214.486191,319.179962 216.189331,318.260101 217.952988,321.063690 
	C208.290253,326.568237 197.017059,324.091003 186.909698,327.348541 
	C195.202835,338.424988 205.743729,345.678192 217.705627,351.142395 
	C219.594040,352.005005 222.287750,352.443604 222.433914,355.712494 
	C218.913330,356.789551 216.704666,354.137024 214.020340,353.230896 
	C212.764023,352.806854 211.531067,351.960602 210.279999,353.014313 
	C208.888641,354.186157 209.210526,355.717621 209.773880,357.156586 
	C211.354919,361.194885 213.170959,364.993469 216.330429,368.220367 
	C222.870026,374.899536 224.343033,383.913086 227.526459,393.027679 
	C222.660599,392.115662 223.038361,394.952881 223.113281,397.471008 
	C223.311081,404.119690 223.587158,410.765961 223.796219,417.414337 
	C224.042709,425.252686 221.688644,431.697357 214.661972,436.150085 
	C209.436218,439.461548 204.225693,442.741547 198.419037,444.890045 
	C187.905685,448.780029 177.304535,451.088654 166.446655,445.968506 
	C163.267487,444.469360 162.636093,446.770477 162.411057,449.091736 
	C159.680862,477.254456 156.723190,505.384949 160.137436,533.746826 
	C163.890289,564.921570 170.848999,595.319458 181.088318,624.979797 
	C182.879486,630.168335 183.268997,635.444885 181.949509,640.687500 
	C181.067215,644.192932 179.922195,648.302551 175.694336,648.998108 
	C168.947479,650.108032 166.267761,654.486084 164.797821,660.411926 
	C163.876389,664.126526 162.466110,667.724854 161.632248,671.455139 
	C159.540283,680.813416 155.436523,689.702576 156.329758,699.747437 
	C157.574524,713.745361 159.812332,727.500671 164.417465,740.779663 
	C166.165878,745.821289 167.954956,750.978394 172.125809,756.397156 
	C173.923660,747.330811 175.569519,739.611938 176.961578,731.847534 
	C178.357773,724.060120 175.689941,716.299622 176.584396,708.373962 
	C175.978806,716.709900 181.156570,723.489319 182.270981,731.260010 
	C184.967117,750.060242 192.775467,766.123596 207.279892,778.648804 
	C208.639587,779.822815 209.871429,781.770691 212.272614,780.998718 
	C210.979828,769.858459 205.291641,759.912720 204.792801,748.927429 
	C204.304825,738.181580 204.853424,727.388611 204.947021,716.616272 
	C205.625732,716.627380 206.304443,716.638428 206.983139,716.649475 
	C207.368240,726.405701 206.318085,736.241150 208.135239,745.953003 
	C207.624664,719.042969 213.339645,692.382324 210.681183,665.284668 
	C216.747086,692.814209 221.414124,720.520569 233.150513,746.304016 
	C233.540955,737.471863 230.108353,729.264832 229.034927,720.520203 
	C230.846832,720.894348 230.931503,722.187378 231.305374,723.190186 
	C236.321808,736.645752 238.664978,750.910217 240.764938,764.854919 
	C243.347305,782.002991 241.005600,799.451782 232.583206,815.375854 
	C232.197983,816.104187 231.209717,817.002869 232.951248,818.492371 
	C248.257263,809.723389 259.648102,796.888672 267.813202,781.406555 
	C274.561493,768.610901 275.077484,754.652954 272.465546,740.453430 
	C271.134033,733.214905 271.852600,725.845398 272.940643,718.547302 
	C274.504608,728.065430 275.354980,737.597778 276.305206,747.120178 
	C277.229187,756.379700 276.888489,765.792297 279.434174,774.855164 
	C280.278442,777.860840 280.755951,781.218140 284.519379,783.415222 
	C285.284180,769.296204 286.043762,755.818542 289.618774,742.267151 
	C295.782654,760.609558 308.599762,774.273560 320.007843,789.978088 
	C323.168427,783.730957 324.947784,778.460388 322.959747,772.404358 
	C320.822388,765.893677 322.075684,760.240845 327.812988,755.982361 
	C330.652557,753.874756 330.717041,751.199829 328.958160,748.510620 
	C326.164276,744.238892 326.261993,740.165100 328.931854,735.884399 
	C329.686401,734.674561 329.823059,733.053467 330.135651,731.597900 
	C334.493713,711.305664 333.294342,690.489990 335.861206,670.001587 
	C337.112854,660.011292 339.567291,650.783691 344.520233,642.166321 
	C347.832825,636.402954 352.194458,631.570312 358.717804,629.451904 
	C363.595032,627.868103 366.369751,623.070862 371.040405,621.548828 
	C379.475128,618.800110 383.604828,612.552856 385.753357,604.623901 
	C386.660126,601.277649 387.127502,597.899780 390.929382,596.265381 
	C385.433472,593.392578 380.284027,591.020691 375.465973,588.101746 
	C369.400208,584.426880 362.875214,582.082642 356.133484,580.129150 
	C353.574677,579.387756 351.752167,579.724854 351.471222,582.679565 
	C350.769867,590.055969 346.012573,595.749084 343.426147,602.339417 
	C342.980103,603.476013 342.466522,604.915283 340.739685,604.893005 
	C340.575714,604.593689 340.251099,604.278503 340.303955,604.051025 
	C340.566132,602.922852 340.829834,601.777466 341.270172,600.711243 
	C344.583252,592.688904 344.264679,584.445068 342.863770,576.122864 
	C342.642853,574.810486 342.681305,573.296936 341.434021,572.523926 
	C335.173462,568.643738 328.860443,564.848083 322.012909,562.235107 
	C322.405060,567.937744 324.292450,572.609131 329.519165,576.588257 
	C325.675293,576.897583 324.264709,575.498718 322.758392,574.227356 
	C315.329285,567.957092 308.846619,560.825806 303.243866,552.888611 
	C300.553558,549.077454 297.340668,547.894348 292.477081,549.006592 
	C287.031250,550.251892 282.291870,554.300476 276.242340,553.094299 
	C268.744568,551.599365 261.047577,550.916809 253.868515,548.112000 
	C248.778488,546.123291 243.313904,544.585632 239.439835,540.423889 
	C222.603378,522.337219 210.813828,502.228699 212.622040,476.193787 
	C213.811539,459.066864 221.244507,444.864014 233.494675,433.867523 
	C244.418869,424.061279 253.525345,413.687103 257.757233,399.478241 
	C258.517853,396.924377 260.067535,394.869934 263.078217,392.352936 
	C262.202728,406.187012 255.278076,417.303711 253.323120,430.287994 
	C256.996460,429.013611 258.981842,426.997559 259.631958,423.854645 
	C260.176666,421.221252 261.451050,419.511749 263.856049,418.106384 
	C267.630280,415.900909 269.682922,412.338287 269.923859,407.850983 
	C270.200592,402.697449 270.605286,397.549591 270.806091,392.393494 
	C271.070618,385.601959 271.732758,378.758698 271.160828,372.028046 
	C270.839417,368.245514 270.740845,364.822662 272.128662,361.336182 
	C272.735382,359.811890 273.706482,358.434357 273.590485,356.628265 
	C273.215271,350.786285 275.604767,345.377106 276.390472,339.704712 
	C277.040009,335.015350 279.265808,329.449860 276.913086,325.837311 
	C273.411560,320.460876 278.176880,318.226166 279.195282,314.722168 
	C280.118042,311.547180 283.150391,311.242310 286.317413,311.730957 
	C286.404480,312.580597 286.638702,313.250061 286.509430,313.839844 
	C282.874878,330.418915 281.246735,347.317932 278.638611,364.056976 
	C276.210419,379.641571 273.045258,395.197052 273.342041,411.100708 
	C273.550018,422.248718 273.444427,433.387085 273.945068,444.549744 
	C275.099091,470.279938 281.032806,494.842010 289.595398,518.969238 
	C291.104675,523.222046 294.262817,526.379028 295.419800,530.876892 
	C298.503296,542.864685 305.528473,552.669678 314.084991,561.479736 
	C314.036469,560.454590 313.674469,559.580505 313.254242,558.735291 
	C308.581635,549.336914 303.861084,539.871643 300.918365,529.831970 
	C292.818146,502.196136 289.243561,473.717621 285.400482,445.237000 
	C283.198395,428.917297 282.228577,412.803558 283.766907,396.502197 
	C284.423706,389.541931 284.459229,382.405945 287.863007,375.877838 
	C285.920288,393.389160 285.325317,410.887787 287.356232,428.355896 
	C289.411377,446.032410 291.523376,463.798248 298.825134,480.266449 
	C305.867981,496.150879 316.197296,510.218689 325.092926,525.099548 
	C312.288879,510.645569 303.285492,493.732758 293.549896,476.374451 
	C291.663483,483.708374 298.312256,514.669312 301.734589,516.747192 
	C303.431213,515.489563 300.931183,513.498535 302.889465,511.882385 
	C306.904510,518.162415 310.804718,524.566650 317.497894,529.012451 
	C317.667725,526.178345 315.353363,524.660034 315.932068,521.897400 
	C320.737030,529.329529 325.538727,536.280823 329.841827,543.528137 
	C335.728058,553.441772 343.940308,562.154785 345.772339,574.238281 
	C346.106110,576.439758 345.963013,578.923706 347.662750,581.204407 
	C349.528961,569.684387 346.648041,559.046082 342.923676,547.703796 
	C354.317688,551.338806 362.016479,560.205444 373.444244,562.250061 
	C359.909424,540.496704 354.667236,516.314148 349.836609,491.287354 
	C352.070343,492.235321 352.164001,493.621948 352.489563,494.843323 
	C354.375153,501.917145 356.416168,508.954651 358.097961,516.076843 
	C363.695099,539.779602 372.936462,561.337524 393.020691,576.676941 
	C393.651489,577.158752 394.344543,577.716553 393.864349,579.738892 
	C379.614899,569.009583 363.269104,562.791077 347.657745,552.557678 
	C348.940613,559.609619 351.200592,564.695312 351.696075,570.191528 
	C351.780121,571.123718 352.981689,572.089111 353.864380,572.790833 
	C356.739166,575.076294 359.828033,577.015442 363.235596,578.466492 
	C372.124542,582.251587 381.053162,585.958252 389.817322,590.017029 
	C396.742706,593.224304 403.819214,596.408936 407.873596,603.539490 
	C408.657837,604.918762 409.896301,605.639893 411.447784,606.019104 
	C418.385620,607.714844 425.108734,610.056702 431.834167,612.467834 
	C437.964569,614.665649 444.139496,614.949463 450.902161,613.573120 
	C459.946594,611.732361 467.869232,612.352600 471.095184,622.790649 
	C472.501587,627.341248 476.387177,627.837341 480.394440,627.841187 
	C483.076080,627.843689 486.107300,628.092712 487.133240,624.890381 
	C488.088470,621.908752 485.919525,619.856079 483.883301,618.135132 
	C479.770020,614.658752 474.770081,612.655457 470.061127,610.174255 
	C468.235443,609.212341 466.100555,608.547668 465.402222,605.116943 
	C472.435242,605.521790 479.002563,605.652161 485.511169,606.338806 
	C493.175201,607.147400 500.976501,607.862854 508.405182,606.245850 
	C522.703369,603.133728 536.975342,599.826233 551.203979,596.406860 
	C571.230408,591.594238 588.816406,581.168335 605.816162,569.974670 
	C611.559082,566.193237 616.786133,561.271912 620.142090,554.896973 
	C624.851990,545.950195 627.449341,536.347717 628.921326,526.411499 
	C630.308838,517.046326 630.743713,507.464478 634.084290,498.515503 
	C637.925903,488.224640 642.159180,478.075470 646.427734,467.951385 
	C647.656616,465.036560 647.849304,462.152832 647.571777,459.163177 
	C647.364685,456.933228 645.628601,455.970001 644.108765,457.405426 
	C639.666687,461.600830 632.822449,463.778656 632.062378,471.213867 
	C631.850525,473.286072 630.138794,474.267395 628.624390,475.256226 
	C627.114746,476.241974 625.715393,475.473511 624.532715,474.476074 
	C623.373474,473.498383 623.045776,472.213745 624.031555,470.940948 
	C629.193359,464.276489 629.386108,456.546143 628.614624,448.720734 
	C627.786926,440.325775 623.708862,435.875214 615.611877,433.876099 
	C611.331421,432.819275 610.258057,433.886597 610.884705,438.332886 
	C611.976013,446.076874 613.005249,453.759949 611.601135,461.670319 
	C610.687683,466.816650 609.358948,470.308533 603.219666,469.220337 
	C601.871216,468.981262 600.544922,469.485229 600.048279,471.047821 
	C599.404602,473.073212 600.788269,473.705780 602.283997,474.227600 
	C604.128601,474.871002 605.450684,476.060974 604.052124,477.905945 
	C601.444519,481.345886 599.383606,485.385559 595.294739,487.613586 
	C594.073181,485.618408 594.876221,484.038208 595.902954,483.167206 
	C601.257080,478.625214 597.230713,472.514252 598.702698,467.348694 
	C598.866333,466.774414 598.187378,465.705719 597.605408,465.213837 
	C593.305420,461.579559 593.291016,456.451385 592.739319,451.526642 
	C592.520691,449.575134 592.665955,447.533722 590.330811,446.912750 
	C588.953613,447.622864 588.950806,448.691101 589.064941,449.655884 
	C589.776855,455.676605 587.614624,461.177124 585.845825,466.692139 
	C584.292419,471.535370 579.934326,473.441925 577.536072,470.601807 
	C578.170959,470.076660 578.830750,469.578644 579.436707,469.022064 
	C583.516174,465.274780 583.962158,462.272461 580.876465,459.453644 
	C577.909485,456.743317 575.295044,457.176056 572.150879,460.950012 
	C568.562439,465.257385 572.129272,466.912384 575.057800,468.878540 
	C575.840454,469.403992 576.378052,470.294342 576.367798,471.373749 
	C573.153442,473.371765 570.945984,471.243439 568.915771,469.318329 
	C566.991821,467.494049 565.154297,467.549438 563.022583,468.649933 
	C560.623474,469.888458 559.615662,471.848419 560.236694,474.431396 
	C560.897095,477.178131 561.788208,479.870331 562.608643,482.577209 
	C563.110535,484.233093 564.064026,485.899750 562.060486,487.956207 
	C556.679016,480.098389 555.769470,471.807709 557.283630,462.997772 
	C552.808777,461.886749 552.987488,459.313873 555.000427,456.353699 
	C555.950623,454.956329 557.527100,453.468719 556.276428,451.951263 
	C554.093872,449.303253 555.815247,447.775421 557.277954,445.947327 
	C564.511047,436.907318 573.837036,430.093628 582.345703,422.415649 
	C584.448608,420.518066 587.486755,419.722992 589.794556,416.577393 
	C577.943970,417.923615 569.296570,424.581726 559.855652,430.074585 
	C559.505554,427.532562 560.566223,426.846527 561.459534,426.164734 
	C569.228943,420.235168 577.766052,416.012878 587.307739,413.555878 
	C590.947510,412.618652 593.600586,415.131500 596.466431,414.910126 
	C600.858643,414.570923 605.151794,412.750946 609.446594,411.428345 
	C611.737305,410.722900 611.734070,408.977448 611.179077,406.968658 
	C609.627502,401.352783 608.059326,395.736542 606.726440,390.066711 
	C605.602417,385.284851 603.011780,384.451294 598.630920,386.031403 
	C588.923584,389.532776 579.114075,392.740204 569.607483,396.797180 
	C567.532104,397.682922 566.403137,399.103088 565.645386,400.985657 
	C561.070557,412.351227 554.403503,422.521057 547.471313,432.511536 
	C543.256287,438.586029 538.233948,444.004456 532.727905,449.027496 
	C549.230591,419.449005 550.830627,387.679138 548.758301,355.210419 
	C543.762207,354.708893 542.892334,357.463165 542.043457,360.250153 
	C538.889893,370.604065 535.134216,380.727997 531.242188,390.836304 
	C522.645264,413.164276 508.554962,431.709015 492.639984,449.102295 
	C491.303162,450.563293 490.044922,452.667358 487.410675,451.937866 
	C487.074432,449.872314 488.798309,449.212830 489.482697,447.968414 
	C492.893066,441.767548 497.325592,435.811951 495.661987,428.100861 
	C494.470367,422.577423 493.064606,417.089081 491.475555,411.666809 
	C490.556549,408.530823 490.740997,404.952850 488.161804,401.774323 
	C488.161804,415.861206 488.161804,429.325165 488.161804,443.119598 
	C479.029816,428.098328 476.053101,410.611633 465.581421,395.266846 
	C467.188446,413.282776 470.205505,429.812653 473.938141,445.895264 
	C465.876831,442.632050 463.155762,434.394897 457.422455,428.531464 
	C455.441803,430.545349 453.536438,433.965118 451.146332,430.109741 
	C446.412720,422.474121 439.870667,417.637390 431.134705,415.680969 
	C430.971375,415.644409 430.918854,415.113190 430.746307,414.615967 
	C432.448364,412.607147 434.710052,413.613708 436.719116,413.738739 
	C440.161987,413.953033 441.456818,412.714355 440.179169,409.322876 
	C436.306824,399.044037 432.602295,388.698059 428.510529,378.507477 
	C426.404327,373.261963 425.125763,373.070526 420.294830,375.968842 
	C411.545990,381.217743 402.462097,385.710449 392.552979,388.346619 
	C390.763947,388.822571 388.889618,389.757599 386.252655,387.584991 
	C395.613159,385.329193 402.182312,379.611511 409.370392,374.973358 
	C411.690247,373.476501 414.360596,372.105438 415.012604,368.991516 
	C415.012604,368.991516 414.994659,369.018829 415.720886,368.930145 
M375.136444,828.097351 
	C377.617157,828.029968 381.182373,831.872192 382.385284,827.688782 
	C385.042236,818.448364 388.526520,809.409119 389.740448,799.751770 
	C391.367767,786.805359 390.249481,773.823120 390.669189,760.865234 
	C390.765839,757.881348 390.478149,754.862244 391.565979,751.971619 
	C394.930634,743.031189 395.899384,733.550903 397.821075,724.282776 
	C399.325867,717.025269 397.413574,709.791443 398.136414,702.435669 
	C399.218414,691.424561 399.832031,680.148376 395.844330,669.333435 
	C395.217316,667.633057 394.021362,665.786804 395.665771,663.371399 
	C400.795929,667.367798 401.836121,672.915161 402.641510,678.418396 
	C403.179474,682.094116 404.688934,682.006104 407.324768,680.488220 
	C409.376709,679.306580 409.959137,677.557190 409.700775,675.433716 
	C409.239960,671.646240 411.065125,669.214722 413.961700,667.054810 
	C416.818817,664.924377 419.959656,662.999207 422.291168,659.493713 
	C412.525330,655.115540 403.277344,650.642456 394.553070,645.122864 
	C391.549438,643.222534 390.452576,641.167664 390.759613,637.812378 
	C390.967834,635.536865 391.459961,633.079163 390.085388,630.988220 
	C387.636932,627.263916 373.838562,623.587585 370.590088,626.559509 
	C364.569794,632.067261 356.421265,633.382263 350.528046,640.336548 
	C342.414673,649.910767 338.967316,660.877014 337.546143,671.732422 
	C335.865479,684.570007 336.366211,697.942444 336.081512,711.085388 
	C335.898071,719.552734 334.982025,728.232971 331.863586,736.012695 
	C329.964417,740.750793 329.505676,744.166260 332.018921,748.390198 
	C333.468750,750.826904 334.570465,753.703491 331.617676,756.018921 
	C325.292389,760.978943 324.447784,767.210388 327.270966,774.290283 
	C328.436920,777.214233 328.359039,779.997986 327.487244,783.035156 
	C324.137054,794.706238 320.905975,806.435425 319.582428,818.539673 
	C319.176392,822.252869 318.195160,826.321899 320.820526,830.056030 
	C323.988403,825.318909 323.986603,825.049805 327.151306,825.028503 
	C342.944397,824.922363 358.782990,824.246033 375.136444,828.097351 
M677.761414,659.565125 
	C676.270569,655.747070 677.454712,650.730469 672.709229,648.323914 
	C672.450439,648.192749 672.576416,647.082214 672.697021,646.461304 
	C673.252258,643.603027 672.542542,640.837280 672.222900,638.031128 
	C669.973083,618.280640 670.431396,598.480530 671.239990,578.677673 
	C671.311768,576.920166 672.457581,574.823181 670.439575,573.664612 
	C668.277832,572.423645 666.237976,573.575867 664.500183,574.996399 
	C662.958740,576.256470 661.625671,577.755798 659.308167,577.474121 
	C652.295593,576.621948 645.063538,582.442322 644.119263,589.442139 
	C643.766968,592.053955 643.281616,594.733582 642.302673,597.158508 
	C639.711182,603.577881 639.590759,603.529175 645.728333,607.244385 
	C652.742859,611.490234 653.786499,614.305115 651.494446,622.155823 
	C649.629333,628.544006 647.904785,634.973206 646.099060,641.378906 
	C645.576843,643.231567 645.530945,644.675415 647.259949,646.242493 
	C651.447144,650.037537 655.137512,654.389709 659.396484,658.093750 
	C662.667725,660.938782 662.845032,664.108521 661.291809,667.481750 
	C658.195618,674.206177 653.942810,680.132874 647.713745,684.362244 
	C646.012085,685.517639 645.438293,686.988586 645.141418,688.914734 
	C643.608276,698.863220 643.655396,708.907532 644.756042,718.795105 
	C645.434692,724.892578 645.065796,729.898621 640.604919,734.312683 
	C638.597046,736.299561 638.093994,738.616150 638.868652,741.608215 
	C643.214722,758.395142 645.422729,775.513489 646.274536,792.821350 
	C646.366089,794.680481 645.583496,796.882629 648.693359,798.807373 
	C662.361145,784.251465 669.194031,766.586914 671.942078,746.857849 
	C675.385010,752.383057 676.090271,758.369873 678.880859,763.710693 
	C680.657959,743.035461 680.331726,722.489319 676.367249,702.044067 
	C679.883850,707.666138 681.839966,713.883179 682.001648,720.088318 
	C682.238464,729.178345 687.563538,733.604126 694.561279,737.282227 
	C696.772400,738.444397 699.106140,740.437866 701.487061,739.533203 
	C705.621460,737.962219 709.639648,738.726868 713.744019,738.848633 
	C716.532166,738.931335 719.133301,738.200134 720.444580,735.418213 
	C721.802979,732.536560 720.471680,730.054749 718.435547,728.231506 
	C707.133667,718.111328 698.713440,705.702332 690.721985,693.033081 
	C687.537842,687.984985 683.455505,683.609314 681.755432,677.295471 
	C680.243042,671.678711 680.791443,665.625183 677.761414,659.565125 
M229.691589,523.788818 
	C235.028046,531.916931 240.671188,539.427917 250.271835,543.415710 
	C258.007965,546.629028 266.083099,547.244629 274.074585,548.566162 
	C279.485413,549.460876 288.100952,541.514038 286.543457,537.086243 
	C283.286469,527.826965 283.586914,518.040466 281.472595,508.660248 
	C279.666962,500.649567 277.320709,492.760712 275.168640,484.648560 
	C264.223328,490.598511 263.398773,499.168640 272.466797,505.756897 
	C274.214447,507.026611 276.111420,508.088989 277.910614,509.290283 
	C278.946106,509.981659 280.492065,510.353882 280.009979,512.172791 
	C274.917480,512.383118 264.867706,505.142212 263.236267,500.108307 
	C261.401611,494.447388 265.886108,486.982941 274.245514,481.799927 
	C273.724182,473.029694 270.449921,464.771362 269.442200,456.070374 
	C269.160645,453.639130 267.206268,451.512726 264.704712,450.606476 
	C257.629211,448.043091 250.564438,446.388245 243.906509,451.838623 
	C243.122910,452.480133 242.317795,453.707916 240.803055,452.848297 
	C240.797241,450.404938 242.501572,449.052643 244.170151,447.739594 
	C251.924332,441.637604 260.099457,444.685883 268.113007,447.496338 
	C269.062469,440.360657 266.778961,436.961273 261.012909,435.174957 
	C253.708206,432.912048 246.529556,433.437866 239.494263,435.921722 
	C237.226089,436.722534 234.428574,436.118866 232.673492,438.431641 
	C223.308823,450.772095 216.795258,464.409668 216.539856,480.059631 
	C216.286484,495.584747 222.004776,509.693207 229.691589,523.788818 
M398.296417,738.596558 
	C395.523529,749.199890 392.023682,759.677490 393.368378,770.927856 
	C393.932404,775.646851 394.544281,780.703125 398.721497,783.316345 
	C406.224121,788.009766 413.541199,792.872742 420.274353,798.620056 
	C422.280426,800.332458 423.878754,799.899231 424.878723,797.352173 
	C425.264038,796.370605 425.283722,795.072815 426.879852,794.532898 
	C427.041016,798.770691 429.116760,797.286682 431.157318,796.041992 
	C436.988770,792.485107 442.711334,788.599548 449.156525,786.329956 
	C455.028839,784.262024 457.502502,780.757080 458.475250,774.526611 
	C461.410431,755.726379 459.348724,738.830505 443.952545,725.513855 
	C440.467743,722.499756 437.853241,718.481262 434.827667,714.934143 
	C428.713593,707.766052 422.592316,700.604248 416.154083,693.065186 
	C411.024292,697.588440 403.949982,699.858032 403.427887,707.780273 
	C402.757446,717.953491 400.509552,727.837891 398.296417,738.596558 
M566.659912,728.276733 
	C565.937378,730.225586 565.956055,732.259583 566.472595,734.187012 
	C568.585327,742.071106 569.813232,750.118774 571.120483,758.154602 
	C571.330994,759.448669 571.351990,760.750061 572.301941,761.880676 
	C578.581726,769.354675 596.799011,771.617188 603.471558,764.564392 
	C613.038086,754.452698 624.662659,746.870850 634.583801,737.299927 
	C638.832825,733.200745 641.750732,727.957275 641.392578,721.812988 
	C640.940186,714.050232 639.258484,706.358276 640.606689,698.513611 
	C640.861328,697.032043 641.286987,695.126465 639.432312,694.049805 
	C633.930237,695.435608 633.112854,694.892578 633.070679,689.081299 
	C632.984070,677.146484 633.044617,665.210571 633.044617,653.275146 
	C629.239319,664.168640 628.529053,675.456299 627.523254,686.678162 
	C626.905518,693.570801 622.978149,698.499146 617.441833,701.193359 
	C603.324158,708.064026 588.939209,709.872314 575.110779,699.933777 
	C574.636047,699.592590 573.904785,699.608459 572.441895,699.248474 
	C571.369324,708.998779 570.997864,718.667725 566.659912,728.276733 
M580.398132,588.999878 
	C569.409790,593.518188 571.197998,591.884521 571.330383,602.543945 
	C571.465088,613.388977 574.645203,623.864258 575.919678,634.584351 
	C576.252747,637.386108 578.017395,638.060852 580.508484,637.869751 
	C588.971680,637.220337 597.427734,636.566895 605.815186,635.155579 
	C611.064941,634.272217 614.949158,631.815125 617.770996,627.174377 
	C620.707947,622.343994 624.275513,617.901917 627.404114,613.181885 
	C631.081604,607.633911 634.644043,602.006958 638.143982,596.344849 
	C641.568481,590.804993 639.897156,587.631653 633.459106,587.130920 
	C632.090637,587.024414 630.352905,587.518677 629.871277,585.177795 
	C631.326294,583.896423 633.227661,584.019287 634.968750,583.711304 
	C637.497803,583.263977 639.232605,581.686096 638.620972,579.258911 
	C636.690979,571.599670 639.120911,564.689880 641.056580,557.442200 
	C643.157959,549.574280 638.624084,542.151917 631.805908,540.073486 
	C627.706299,547.578979 624.604553,555.373291 626.145996,564.621338 
	C623.013672,563.644714 624.068481,560.905029 621.937378,560.484741 
	C617.919800,565.287659 612.515503,568.893860 609.643982,574.739807 
	C609.210571,575.622131 608.346191,576.567566 607.277649,576.276245 
	C603.635254,575.283020 601.384338,577.941284 598.676025,579.360718 
	C592.798950,582.440796 586.957825,585.589661 580.398132,588.999878 
M628.711914,652.299683 
	C629.073792,648.663269 629.593933,645.033081 629.737732,641.388062 
	C629.822754,639.234009 630.923218,636.494446 627.989502,635.229370 
	C625.081238,633.975342 622.229370,634.038147 619.459167,636.469238 
	C621.400696,640.259216 622.317993,644.070251 620.290588,648.188232 
	C618.174927,647.043457 618.987488,645.400330 618.913879,644.050964 
	C618.658142,639.357300 615.665833,636.306519 611.096863,637.426270 
	C600.046326,640.134644 588.833740,640.973389 577.558777,641.862671 
	C571.936157,642.306091 566.680847,643.338745 562.801453,635.995544 
	C561.627380,643.148560 557.842651,648.830750 562.343323,654.352905 
	C564.803772,657.371765 567.743896,660.135803 570.979431,662.561035 
	C574.423157,665.142212 578.151978,667.645508 580.636597,671.609863 
	C577.902100,672.856445 576.336670,669.620850 573.493408,671.227783 
	C573.590515,675.965088 572.683105,680.933228 570.791443,685.690674 
	C570.330017,686.851135 570.584900,688.131104 571.362793,689.008667 
	C577.292236,695.697937 583.002441,702.930054 592.787354,703.810364 
	C596.531494,704.147156 600.383728,703.025391 604.192505,702.970581 
	C608.115662,702.914185 609.759521,700.851868 610.631653,697.370667 
	C611.617737,693.434753 612.255310,689.351746 614.471680,684.925049 
	C616.091248,689.440857 614.096375,693.565735 615.991150,697.523560 
	C621.538086,694.530518 624.355042,690.266846 624.658569,684.297791 
	C625.191223,673.823669 626.591553,663.458008 628.711914,652.299683 
M562.489502,741.864563 
	C559.279785,738.441345 559.675842,734.885254 561.720276,730.975952 
	C567.115295,720.660034 569.121521,709.661133 567.662354,698.092041 
	C567.024536,693.034180 565.959351,688.108704 561.420471,684.040466 
	C561.152832,685.376282 560.900208,685.996155 560.925232,686.604614 
	C562.174438,716.916138 554.856628,745.862488 546.839600,774.686462 
	C546.204346,776.970276 546.568848,778.368286 548.492920,779.791565 
	C552.227905,782.554504 555.745850,785.608765 559.415222,788.463257 
	C560.997742,789.694275 562.712158,791.278931 560.413574,792.708801 
	C557.675049,794.412292 559.170837,796.007385 559.689758,797.756958 
	C562.174927,806.137817 568.014893,812.442871 573.050049,819.242310 
	C573.329529,819.619690 573.809448,819.848694 574.333496,820.252686 
	C575.455017,819.673584 576.572693,819.096497 577.581421,818.575684 
	C578.980286,819.679932 576.861755,820.869141 578.159241,821.947449 
	C586.088867,816.573364 592.464600,809.819702 596.380310,800.353821 
	C599.708862,804.693054 597.084045,808.712097 597.469116,812.654968 
	C609.082336,802.126038 619.435303,770.013611 614.308044,760.691040 
	C611.786499,760.994019 609.942383,762.537292 608.949646,764.643311 
	C607.698914,767.296692 605.640137,768.547852 603.152161,769.737305 
	C595.190979,773.543396 586.979431,774.452881 578.420288,772.456238 
	C575.403198,771.752441 573.112915,772.153931 572.599243,775.819702 
	C572.468872,776.749634 572.281433,777.881653 570.635254,777.755371 
	C568.909546,773.963074 568.983398,769.802246 568.628113,765.707092 
	C568.282227,761.718201 567.630981,758.059204 562.218933,758.051270 
	C560.031494,758.048035 558.651367,756.394714 558.703125,753.985657 
	C558.746216,751.977600 559.519958,750.624756 561.584167,749.844666 
	C566.812195,747.868896 566.988647,746.667297 562.489502,741.864563 
M698.546570,628.039185 
	C711.398621,609.424377 722.324890,590.162537 725.001343,566.937561 
	C727.577087,544.587097 729.430664,522.408264 725.397400,499.986359 
	C723.174500,500.443420 722.852234,501.498932 722.560852,502.397308 
	C718.206726,515.823425 711.280029,527.914185 703.369080,539.494263 
	C702.376221,540.947693 701.981812,542.561462 702.081055,544.226440 
	C702.700317,554.618225 700.602722,565.222351 704.519348,575.365173 
	C705.068420,576.787170 704.924072,578.304749 704.362244,579.765442 
	C702.667114,584.172852 702.275085,588.805603 702.120422,593.461975 
	C701.798279,603.159729 700.767944,612.628723 696.096313,621.462158 
	C693.506531,626.359314 691.747803,631.695984 689.614502,636.834534 
	C689.943054,637.043030 690.271606,637.251587 690.600159,637.460083 
	C693.106812,634.511902 695.613464,631.563660 698.546570,628.039185 
M176.056046,389.500244 
	C176.120300,397.152130 175.871399,404.822815 176.328415,412.451172 
	C176.893951,421.890869 181.790054,425.919769 191.216431,426.032593 
	C195.803741,426.087494 199.586441,424.223206 203.425964,422.216370 
	C210.141205,418.706390 211.009888,416.887878 209.373978,409.520630 
	C209.086060,408.224060 208.613770,406.968872 208.316071,405.674011 
	C205.193710,392.093353 200.554153,379.002808 195.331406,366.120911 
	C192.577438,359.328308 189.410492,352.716919 183.261017,348.136749 
	C179.977570,345.691223 178.373901,346.167023 177.412720,350.130035 
	C177.102371,351.409729 177.108414,352.766815 176.977158,354.089203 
	C175.840744,365.537476 176.566360,377.035095 176.056046,389.500244 
M425.393402,642.130127 
	C436.507721,645.804260 436.692993,645.931091 443.310760,636.264282 
	C447.514252,630.124084 452.699066,624.635254 456.167542,617.980408 
	C454.618774,616.921509 453.250000,617.071777 451.993439,617.448730 
	C442.152649,620.401550 432.984589,618.529236 424.092407,613.894897 
	C421.906647,612.755737 419.437195,611.567505 417.065613,611.497070 
	C411.473328,611.330933 406.842285,608.779175 402.042328,606.519470 
	C399.633667,605.385437 397.255859,604.185669 394.844025,603.058533 
	C391.710175,601.594116 389.753998,602.262268 389.268585,606.010376 
	C388.763916,609.907166 386.990906,613.285889 384.504425,616.289795 
	C380.012573,621.716248 380.253571,621.997620 386.695282,625.445923 
	C398.907776,631.983154 411.643738,637.239075 425.393402,642.130127 
M80.261131,382.998718 
	C81.595222,386.491486 83.437370,387.220856 87.527512,386.424561 
	C95.104393,384.949463 100.872849,380.732269 106.799217,376.497864 
	C123.203262,364.777161 135.291290,348.729492 148.973404,334.282959 
	C150.072464,333.122528 151.204147,331.782715 151.018387,329.873596 
	C148.445084,327.638580 145.722839,328.594330 143.070511,329.544525 
	C132.575119,333.304535 122.248634,337.494263 112.572617,343.064636 
	C102.615234,348.796906 92.935478,355.000488 85.579971,364.060730 
	C81.311615,369.318298 77.888954,375.006653 80.261131,382.998718 
M673.913391,583.490234 
	C673.472656,602.317932 673.897888,621.054688 678.594666,639.367188 
	C681.861511,639.083984 682.829285,637.464966 683.938721,636.029663 
	C689.737244,628.528442 693.545471,620.084717 695.647583,610.878540 
	C699.201416,595.315125 698.003357,579.421814 698.705750,563.664856 
	C698.813965,561.237671 698.074951,558.712280 697.388611,556.329956 
	C696.873108,554.540527 695.247070,552.255920 693.504150,553.952209 
	C688.679138,558.648376 681.924194,561.453003 679.021118,568.019470 
	C676.937744,572.732117 675.193420,577.596497 673.913391,583.490234 
M466.739563,422.533539 
	C464.996246,411.719788 463.274933,400.904663 462.589661,389.954498 
	C462.096436,382.072723 461.997925,382.042023 454.167084,381.157043 
	C452.703766,380.991669 451.301117,380.347198 449.842926,380.067719 
	C445.518555,379.238861 441.180420,378.481903 436.698700,377.669891 
	C436.490295,394.223511 441.875427,408.546783 449.900177,422.575745 
	C453.034393,419.458649 451.952789,415.538635 453.955200,411.548157 
	C458.711975,421.486816 462.323273,430.928070 468.636658,438.980499 
	C469.190948,433.547272 467.664154,428.512909 466.739563,422.533539 
M551.160400,627.356018 
	C552.683533,629.321289 554.128967,631.353943 555.755371,633.229553 
	C556.958557,634.617126 558.419250,635.227478 560.017334,633.603577 
	C566.632446,626.881531 572.852295,620.083313 567.850769,609.524109 
	C567.017212,607.764282 566.903442,605.671692 566.388550,603.751221 
	C565.270325,599.579773 562.398804,597.298523 558.254761,598.239075 
	C547.750305,600.623230 537.343933,603.441650 526.912048,606.139526 
	C525.476990,606.510681 523.815613,607.052795 523.727478,608.843201 
	C523.633484,610.751465 525.249390,611.722839 526.694153,612.489563 
	C527.846008,613.100891 529.211487,613.300476 530.467224,613.726868 
	C538.309814,616.390137 546.581177,618.395081 551.160400,627.356018 
M516.128784,38.206383 
	C505.218597,31.911476 494.735352,30.968981 484.417053,39.794941 
	C474.167358,48.562157 465.594604,58.564274 459.546814,70.646385 
	C458.890228,71.958138 458.515289,73.467003 458.290558,74.927643 
	C457.744415,78.477455 459.287109,81.331299 462.430664,82.616547 
	C466.202301,84.158607 470.027008,81.864792 471.710876,78.290169 
	C473.688202,74.092484 472.938873,71.047668 467.712769,68.841881 
	C475.548889,61.782097 485.147705,58.919197 492.611328,52.596207 
	C500.114166,46.240040 509.329315,41.955521 519.674805,41.513470 
	C519.328735,39.400253 517.773499,39.256866 516.128784,38.206383 
M574.076233,384.800171 
	C577.610107,385.600983 580.571655,383.804749 583.585693,382.542389 
	C588.078857,380.660492 592.739258,379.138611 597.523010,378.902588 
	C602.325012,378.665680 603.181641,376.949738 601.866516,372.670074 
	C597.662964,358.991486 593.708740,345.236359 589.537476,331.547577 
	C589.005188,329.800903 588.936279,327.489441 586.477600,326.780701 
	C584.609131,328.388489 584.613708,330.664734 584.277527,332.734344 
	C581.714233,348.513245 578.594421,364.163391 573.794373,379.438721 
	C573.290405,381.042633 572.888000,382.652618 574.076233,384.800171 
M169.546692,405.940186 
	C168.432175,412.988068 169.452484,420.185974 167.657410,427.256409 
	C166.976486,429.938416 168.659683,434.143616 171.747543,434.311951 
	C176.263474,434.558136 177.314514,437.352631 178.536560,440.387421 
	C180.030945,444.098541 182.634155,445.448700 186.429626,444.696533 
	C197.749954,442.453247 208.025482,438.027832 216.600952,430.104340 
	C219.425247,427.494751 220.184509,424.195435 219.619507,420.530396 
	C219.375778,418.949402 218.495331,417.754303 216.862778,417.315735 
	C215.383530,416.918365 214.297363,417.524658 213.432068,418.723236 
	C208.954712,424.925262 202.141037,427.366852 195.293579,429.337738 
	C184.964966,432.310608 175.880188,426.526672 173.568710,415.980743 
	C172.928604,413.060303 172.492493,410.095642 171.918930,407.159851 
	C171.715302,406.117554 171.896622,404.524780 169.546692,405.940186 
M75.643150,376.752075 
	C76.532379,374.452026 77.347443,372.119965 78.323166,369.857208 
	C83.714752,357.353760 94.492699,350.217590 105.349854,343.356384 
	C111.384132,339.543030 117.979172,336.620361 124.294662,333.246033 
	C125.714134,332.487610 127.833664,331.774872 127.176964,329.750275 
	C126.405457,327.371704 124.170616,328.301453 122.442520,328.627502 
	C121.139946,328.873260 119.869026,329.319244 118.607689,329.746094 
	C105.707581,334.111908 94.183670,340.832306 83.143654,348.846313 
	C68.291771,359.627350 68.107399,368.126068 69.831932,386.635254 
	C69.965096,388.064514 69.958237,390.424347 72.382919,390.236969 
	C74.768089,390.052643 74.789223,388.011078 75.045334,386.112335 
	C75.536026,382.474396 72.993256,379.571777 72.551880,376.274658 
	C73.840744,375.625854 74.337776,376.684265 75.643150,376.752075 
M640.394043,609.620789 
	C638.216858,609.649170 637.023682,611.050232 636.457825,612.863892 
	C635.620728,615.546570 635.200134,618.359985 634.349060,621.037292 
	C633.275330,624.415405 633.301758,626.434875 637.760315,627.184814 
	C642.773804,628.027893 644.156433,631.789368 641.401550,635.721985 
	C640.924744,634.935120 640.380981,634.299316 640.122620,633.563232 
	C639.293518,631.201172 638.184692,629.098816 635.214233,629.756287 
	C631.605835,630.554871 632.960327,633.506470 633.400085,635.467468 
	C636.339172,648.573669 636.055237,661.855103 636.123169,675.149780 
	C636.145386,679.500488 635.648315,684.029236 637.141418,688.602051 
	C641.233948,687.447083 643.934082,686.123535 643.258545,681.393127 
	C640.420532,661.521851 640.985779,641.898499 647.382263,622.607727 
	C650.051392,614.558105 649.139832,613.376221 640.394043,609.620789 
M457.104675,671.672729 
	C459.855469,672.088867 462.496887,672.022400 464.185211,669.354675 
	C466.933441,665.012329 469.748474,660.700439 472.245575,656.214417 
	C474.451141,652.252075 473.060303,650.298584 468.505341,650.599792 
	C466.913177,650.705139 464.781494,651.740662 464.329407,649.454041 
	C463.654663,646.041199 461.033936,646.309021 458.984833,646.484863 
	C455.289703,646.801819 451.652161,647.790222 447.629852,648.567932 
	C449.392181,651.681458 452.898438,652.288757 454.045166,655.528076 
	C450.894806,655.978638 448.109344,656.328613 445.735016,658.061829 
	C444.010437,659.320923 440.605438,659.265320 441.601624,662.593567 
	C442.573578,665.840698 444.453827,669.361755 448.336975,668.750488 
	C451.875397,668.193420 453.904327,669.978882 457.104675,671.672729 
M509.366821,632.019531 
	C512.116150,633.716980 515.039612,633.685364 518.045166,632.908508 
	C519.661865,632.490540 520.932739,631.775208 520.319092,629.805359 
	C518.949646,625.409302 518.000732,620.888245 515.748840,616.770020 
	C512.216431,610.310181 501.854004,609.126770 497.075562,614.775574 
	C492.873596,619.742859 492.308594,626.364990 489.357452,631.910889 
	C489.007538,632.568420 489.411560,633.562256 490.473206,633.963135 
	C492.031311,634.010071 493.391815,633.046570 494.224121,631.958862 
	C497.527618,627.641785 501.197510,627.551941 505.444489,630.384033 
	C506.395386,631.018127 507.583130,631.297058 509.366821,632.019531 
M417.178558,678.533142 
	C419.696411,689.246338 427.006042,696.876526 434.356628,704.272339 
	C441.137634,711.095154 448.639771,717.195679 454.773743,724.683350 
	C455.856720,726.005310 456.684509,727.805847 458.823059,727.963196 
	C458.399139,723.605652 455.170654,717.769775 449.130707,712.935547 
	C439.637390,705.337158 433.819702,694.733826 425.941803,685.835999 
	C424.854980,684.608521 424.095459,683.075073 423.274872,681.631836 
	C422.046295,679.471069 422.207214,677.712158 424.410828,676.039490 
	C430.418182,671.479431 430.105438,664.479431 432.062286,657.107544 
	C426.025604,660.295166 423.777832,665.472412 419.776794,668.832275 
	C416.945251,671.210022 416.012054,674.201416 417.178558,678.533142 
M458.130890,351.676941 
	C456.936768,351.060272 455.903320,351.430725 454.900665,352.162933 
	C448.739899,356.661987 442.551453,361.123535 436.422180,365.664948 
	C434.975830,366.736603 433.530273,367.983429 434.511719,370.562927 
	C441.184509,371.573456 447.984070,372.771362 454.831055,373.554962 
	C457.463409,373.856201 460.559540,373.374023 460.731842,369.759003 
	C461.015320,363.811493 460.974243,357.840118 458.130890,351.676941 
M327.265747,545.256348 
	C318.721649,539.416260 311.941467,531.458618 303.591370,524.639954 
	C302.212250,540.230835 326.380188,559.952881 338.761627,563.175110 
	C335.746185,556.588501 331.216553,551.498413 327.265747,545.256348 
M479.705994,667.351624 
	C474.487396,671.152039 469.225281,674.894592 464.064270,678.771667 
	C460.154510,681.708862 459.969757,684.411987 463.636353,687.689331 
	C466.092682,689.884827 468.921631,691.667236 471.608917,693.599731 
	C474.458618,695.648987 476.324738,694.575989 477.130646,691.522766 
	C479.029541,684.328491 480.834686,677.107422 482.516571,669.859802 
	C482.844238,668.447693 483.400238,666.097351 479.705994,667.351624 
M472.248688,640.757263 
	C475.085968,639.858276 477.834198,638.640442 480.933868,638.812439 
	C482.716919,638.911316 484.409943,638.347473 484.634430,636.299561 
	C484.886932,633.995605 483.148773,633.161072 481.255066,632.721924 
	C479.293854,632.267090 477.002991,631.700989 475.482391,633.082458 
	C472.767914,635.548584 470.839661,634.118042 468.472778,632.657043 
	C465.322784,630.712524 461.607086,628.777344 458.285614,631.450928 
	C454.707520,634.331116 451.733398,637.772156 446.992096,639.086121 
	C445.430145,639.518921 444.009033,641.578979 444.264832,644.143738 
	C453.512329,644.089111 462.447571,642.312927 472.248688,640.757263 
M506.271759,705.009033 
	C508.067169,706.142578 509.761444,709.083679 512.039673,706.146790 
	C514.056824,703.546448 515.640503,700.614319 514.132996,696.955750 
	C510.977325,689.297363 508.073853,681.534851 504.895447,673.886292 
	C503.814240,671.284485 502.863922,668.433228 499.759338,666.463928 
	C498.477448,672.605286 500.192719,678.012451 500.964783,683.470642 
	C501.480103,687.114136 500.472076,691.758301 506.526215,691.801697 
	C507.257263,691.806885 507.817474,692.793518 507.117371,694.343018 
	C506.638489,695.525024 504.402222,693.987671 503.325104,695.912598 
	C503.577240,698.686279 504.174103,701.715088 506.271759,705.009033 
M644.328918,663.402588 
	C645.096558,669.537781 645.864136,675.672974 646.663696,682.063293 
	C652.819702,677.940613 659.229675,669.293518 658.589355,665.615356 
	C657.613037,660.007141 653.388000,656.833008 649.034241,653.150574 
	C647.257446,656.485596 649.220215,659.430786 647.984558,662.118896 
	C646.623840,661.677368 644.823792,659.069641 644.328918,663.402588 
M556.269897,645.460938 
	C555.905884,639.009766 552.051392,634.497192 547.694824,630.341187 
	C546.262390,628.974670 544.727356,629.068115 543.739014,631.184753 
	C541.524170,635.928467 543.147827,647.377380 546.817688,651.047302 
	C548.675415,652.904968 550.940918,655.001770 553.716125,654.239746 
	C556.667969,653.429260 555.416931,650.355347 555.794739,648.201904 
	C555.909302,647.548889 556.007080,646.893005 556.269897,645.460938 
M478.553375,705.046753 
	C477.747650,704.306946 477.002411,702.862244 475.747681,704.054016 
	C474.616852,705.128052 475.169189,706.611206 475.855804,707.749207 
	C479.126007,713.169678 481.890594,718.824402 484.029785,724.782715 
	C485.178101,727.981201 487.035706,727.970520 489.240143,725.876282 
	C493.092224,722.216919 496.917480,718.528381 500.699921,714.797241 
	C501.599426,713.909912 502.726776,712.973511 501.886322,711.037048 
	C497.172638,711.392212 494.480469,715.126282 491.747772,718.056946 
	C488.353210,721.697327 487.032013,720.100403 485.326202,716.869141 
	C483.313293,713.056335 481.109589,709.344177 478.553375,705.046753 
M509.537506,49.197659 
	C506.263580,50.320446 502.868439,51.192734 500.097534,53.414078 
	C498.893524,54.379295 498.063660,55.611435 498.349640,57.281525 
	C498.656158,59.071434 499.962097,59.595222 501.552856,59.829685 
	C505.771637,60.451485 509.983582,61.119492 514.287415,61.782860 
	C514.844604,60.174961 514.169128,58.393219 516.216064,57.541367 
	C518.082642,56.764568 517.829041,54.719193 516.421692,53.973698 
	C514.042419,52.713345 513.042053,49.824753 509.537506,49.197659 
M462.213409,768.855164 
	C462.576569,769.384338 462.823273,770.185120 463.321655,770.398743 
	C466.591797,771.800354 469.094147,770.157776 471.317352,768.032471 
	C473.959045,765.507202 473.980011,762.472900 472.528748,759.347168 
	C471.132660,756.340454 468.894409,754.104004 465.560638,753.600891 
	C463.674622,753.316223 463.335968,755.156250 462.990784,756.647644 
	C462.123993,760.392761 462.176544,764.205688 462.213409,768.855164 
M544.586548,682.596008 
	C542.451172,676.059570 542.742859,668.636597 537.848328,662.510254 
	C531.794983,675.517822 533.230835,680.497314 544.272034,686.631348 
	C545.219299,685.637085 544.737000,684.456970 544.586548,682.596008 
M540.261292,709.070618 
	C539.126953,711.221619 537.494202,710.284119 535.964722,709.728638 
	C533.004028,708.653137 530.085144,707.493042 527.433899,705.734070 
	C525.924255,704.732544 524.327148,703.541870 522.421326,704.721619 
	C521.426453,705.337585 521.735046,706.413208 521.915161,707.428772 
	C522.305603,709.630676 523.459106,711.144409 525.678589,711.500427 
	C527.796204,711.840149 529.965454,711.842834 532.099731,712.096863 
	C544.106201,713.525757 544.106323,713.536560 545.458435,701.745850 
	C545.533752,701.089355 545.634033,700.420044 545.581787,699.767944 
	C545.467651,698.344849 544.962708,697.194641 542.953125,697.087830 
	C540.196045,700.336731 541.991272,704.742737 540.261292,709.070618 
M504.249847,647.624207 
	C505.980194,652.998535 516.134338,657.222656 520.777161,654.472412 
	C522.533936,653.431580 522.805908,652.019226 521.709900,650.264648 
	C518.750061,645.526184 509.703430,643.759094 504.249847,647.624207 
M607.535950,444.553711 
	C608.270691,434.956238 604.590881,431.534393 596.398987,434.197479 
	C592.440125,435.484467 591.527161,438.290039 594.803162,440.624390 
	C598.344910,443.148041 602.201111,445.699493 607.535950,444.553711 
M641.037048,532.631592 
	C642.084106,527.950745 642.480957,523.505920 637.076294,520.977417 
	C630.502380,530.387695 631.303589,535.301025 639.865112,538.652832 
	C641.011536,537.081116 640.661987,535.184814 641.037048,532.631592 
M545.510498,766.755310 
	C545.884949,764.812317 546.301270,762.876282 546.622986,760.924622 
	C546.994995,758.667908 546.897156,756.340637 544.276123,755.654358 
	C541.520020,754.932800 539.989685,756.874695 539.097961,759.172119 
	C537.672668,762.844238 537.794861,766.398621 541.069519,769.057617 
	C542.979919,770.608948 544.420227,769.524475 545.510498,766.755310 
M394.860321,804.335632 
	C396.444153,802.216125 398.058960,800.118958 399.605804,797.972778 
	C403.763306,792.204224 403.067657,790.690796 395.249298,789.335938 
	C395.674408,794.522644 393.033752,799.411133 394.860321,804.335632 
M629.377014,408.091003 
	C629.696838,410.392487 631.254333,411.005798 633.277710,410.867798 
	C634.808777,410.763336 635.830933,409.850281 635.725952,408.334198 
	C635.467590,404.603699 634.771362,401.005554 630.903992,398.326599 
	C629.651184,401.513580 629.381714,404.378784 629.377014,408.091003 
M416.380676,434.322479 
	C414.936371,437.632263 416.766968,442.845917 419.869629,444.301300 
	C421.153778,444.903656 422.052856,444.614014 422.699463,443.314148 
	C424.079132,440.540619 422.189819,435.803650 418.860382,434.035370 
	C418.356506,433.767761 417.597961,433.979645 416.380676,434.322479 
M465.997650,721.039246 
	C464.636627,719.836243 463.074097,719.438538 462.632355,721.585693 
	C462.033234,724.497559 462.018524,727.553040 464.133698,730.052551 
	C464.689484,730.709290 465.723145,730.853394 466.384186,730.227783 
	C468.701324,728.034790 467.835693,725.401123 467.192352,722.845947 
	C467.075714,722.382751 466.721497,721.979248 465.997650,721.039246 
M555.859009,713.793701 
	C557.431335,707.618652 555.395569,701.510742 555.708984,695.357239 
	C553.511047,702.207275 553.974121,709.132507 555.063049,716.160156 
	C555.290283,715.591125 555.517456,715.022156 555.859009,713.793701 
M381.370605,443.401825 
	C383.456146,442.774902 384.981293,441.657013 384.536530,439.199982 
	C384.246002,437.595245 382.882629,437.272919 381.512085,437.280487 
	C379.755798,437.290192 378.081879,437.891052 377.652100,439.707794 
	C377.109741,442.000397 378.884003,442.822235 381.370605,443.401825 
M425.901764,655.617126 
	C427.725525,654.791626 427.436371,653.709778 426.192810,652.633179 
	C423.633667,650.417664 420.927490,648.506592 416.526215,648.640076 
	C419.433594,651.791321 421.465118,654.782043 425.901764,655.617126 
M636.158447,425.469971 
	C637.518799,426.850372 638.755188,428.463745 641.291077,428.125305 
	C642.221985,425.058105 641.669861,422.355316 638.453857,421.464661 
	C636.364685,420.886047 635.228943,422.597870 636.158447,425.469971 
M303.026855,843.967834 
	C299.342896,846.233032 299.182709,848.343994 302.918549,851.801147 
	C303.101562,849.097961 303.259766,846.761230 303.026855,843.967834 
M549.066162,658.663818 
	C549.200684,658.567871 549.382629,658.498779 549.456116,658.368408 
	C549.527527,658.241638 549.561707,657.972473 549.485779,657.901794 
	C547.465637,656.022400 545.126221,654.993347 541.230347,654.697144 
	C544.008484,657.098572 545.873047,658.619446 549.066162,658.663818 
M401.516815,642.800476 
	C401.815338,642.693787 402.128479,642.613953 402.403503,642.464050 
	C402.486145,642.418945 402.520386,642.065613 402.479523,642.044861 
	C400.538879,641.058411 399.363892,639.256470 397.984619,636.994934 
	C396.500092,640.895569 398.051300,642.232483 401.516815,642.800476 
z"/>
<path fill="#000000" opacity="1.000000" stroke="none" 
	d="
M506.249542,820.012695 
	C505.768677,825.942566 506.940826,831.630554 504.006989,837.107605 
	C501.461670,835.290894 501.496918,832.783997 501.225037,830.664001 
	C500.445587,824.585876 500.629639,818.456299 501.011658,812.348511 
	C501.124878,810.538269 501.368744,808.319153 503.801239,808.408325 
	C506.306763,808.500183 506.122253,810.824097 506.214172,812.583252 
	C506.334747,814.890869 506.259705,817.208679 506.249542,820.012695 
z"/>
<path fill="#000000" opacity="1.000000" stroke="none" 
	d="
M710.270325,407.974213 
	C708.893311,430.861725 701.524475,451.997223 695.962341,473.000885 
	C689.259460,474.762054 688.591980,483.544403 681.295837,485.722107 
	C686.647461,474.304810 690.874390,462.972412 691.539307,450.913727 
	C692.196716,438.990967 691.683044,427.003662 691.114380,414.873138 
	C688.834961,439.575104 677.741943,460.245728 661.867004,478.926117 
	C670.786011,460.103027 672.448181,439.532837 677.039734,419.626282 
	C677.232666,434.185822 674.027039,448.219788 670.768066,462.295197 
	C679.689941,449.213928 686.346252,434.839844 687.271301,419.189850 
	C687.940491,407.866638 690.489258,396.495697 688.786987,385.021942 
	C688.586670,383.671692 688.308472,381.985443 690.617126,380.464905 
	C694.108826,407.885834 697.828613,434.806793 693.582275,462.145203 
	C699.124023,454.224670 700.585327,444.951385 702.604736,435.949738 
	C708.874817,408.000549 707.680603,379.684906 706.096130,351.401367 
	C704.758118,327.516937 699.619873,304.290833 693.195862,281.318024 
	C692.687439,279.499878 692.559021,277.575500 692.926453,275.620575 
	C707.864136,318.371857 713.150208,362.397339 710.270325,407.974213 
z"/>
<path fill="#000000" opacity="1.000000" stroke="none" 
	d="
M269.225769,149.244629 
	C272.035217,144.496567 274.621338,140.042313 277.306793,135.648788 
	C277.683929,135.031799 278.547546,134.712173 279.827728,133.795273 
	C280.531555,140.406677 279.807068,146.228271 277.263977,151.588654 
	C272.581879,161.457748 267.611511,171.196045 262.540283,180.873032 
	C256.513458,192.373535 252.339050,204.649277 247.214279,216.525497 
	C246.527908,218.116074 246.754761,220.749466 243.408524,219.556976 
	C241.982880,219.048920 241.741562,221.278732 241.136780,222.332855 
	C236.006897,231.273911 231.001236,240.286621 225.821655,249.198410 
	C224.813828,250.932465 224.179764,253.217697 221.628204,253.861603 
	C221.053711,251.477188 222.719193,250.060104 223.625931,248.404495 
	C232.410156,232.365173 241.912247,216.686676 248.886505,199.725296 
	C252.222275,191.612671 252.987839,182.668152 256.753540,174.621017 
	C260.698883,166.190109 264.087250,157.495972 269.225769,149.244629 
z"/>
<path fill="#000000" opacity="1.000000" stroke="none" 
	d="
M540.075806,257.901001 
	C540.065430,259.549072 540.043091,260.712952 540.033386,261.876953 
	C539.988831,267.241669 538.699951,271.895660 531.680847,274.623352 
	C534.001160,237.421783 530.360535,201.076340 525.421326,164.675674 
	C531.826477,173.838318 540.994873,212.052765 540.075806,257.901001 
z"/>
<path fill="#000000" opacity="1.000000" stroke="none" 
	d="
M172.907379,259.071411 
	C176.631653,245.348557 178.553772,231.617218 182.732834,218.442993 
	C186.204422,207.499069 190.291428,196.773590 194.903366,186.257904 
	C195.657135,184.539200 196.212936,182.357422 198.863663,182.297272 
	C200.687485,184.179474 198.927704,185.707367 198.291061,187.194839 
	C193.575089,198.213165 189.110855,209.310455 186.103165,220.950882 
	C185.282669,224.126328 185.270004,227.025986 186.408585,230.192657 
	C187.894485,234.325333 187.168564,238.754807 187.043030,243.064774 
	C187.008392,244.253784 186.481033,245.367065 185.149521,245.722809 
	C177.712692,247.709732 175.629608,253.074173 175.149185,260.163452 
	C173.992279,277.234528 171.760605,294.237549 172.186722,311.401947 
	C172.202301,312.029510 172.106918,312.748962 169.913879,313.370880 
	C167.601227,295.046417 169.652435,277.247284 172.907379,259.071411 
z"/>
<path fill="#000000" opacity="1.000000" stroke="none" 
	d="
M260.761261,240.788986 
	C259.214478,242.175644 257.812317,243.282013 256.111053,243.266602 
	C249.761917,243.209045 246.327240,247.078812 243.369370,252.008850 
	C241.977020,254.329590 239.903687,256.241760 237.721771,258.038818 
	C237.531357,255.246948 239.426834,253.494827 240.757584,251.630829 
	C249.548691,239.316910 258.290466,226.976974 265.921631,213.890961 
	C266.421600,213.033646 267.035004,212.234802 267.657654,211.458511 
	C268.646667,210.225571 269.879333,210.004776 271.157288,210.944153 
	C272.471832,211.910385 272.607330,213.391418 271.622559,214.448547 
	C269.401703,216.832550 268.665894,220.001862 266.910828,222.607819 
	C264.804535,225.735229 263.680634,229.108749 263.985229,232.947052 
	C264.219299,235.895859 263.473907,238.564972 260.761261,240.788986 
z"/>
<path fill="#000000" opacity="1.000000" stroke="none" 
	d="
M482.728455,98.410187 
	C479.710083,96.734879 477.340637,97.659439 474.448486,100.149429 
	C475.334869,94.148781 478.981415,92.572121 483.028229,91.553009 
	C491.052490,89.532280 501.799469,94.161133 506.492676,101.916458 
	C502.883942,101.335464 500.192749,99.617676 497.540985,97.929680 
	C494.772614,96.167427 491.553223,96.403374 488.314423,95.834099 
	C499.653687,102.861443 510.436951,110.456863 517.505249,122.193901 
	C506.700104,113.316406 496.809296,103.098991 482.728455,98.410187 
z"/>
<path fill="#000000" opacity="1.000000" stroke="none" 
	d="
M200.763214,297.764252 
	C207.147064,291.533142 213.271088,285.541626 219.638443,279.312012 
	C218.732544,287.918762 186.686615,316.427307 176.997070,316.918884 
	C184.717712,310.476440 193.672821,305.511810 200.763214,297.764252 
z"/>
<path fill="#000000" opacity="1.000000" stroke="none" 
	d="
M582.369080,131.250702 
	C577.752441,131.742462 575.963074,128.259369 573.180542,125.793785 
	C574.648804,123.529198 576.827576,122.233452 578.533508,120.684982 
	C581.487122,118.004005 584.563110,119.860336 586.657715,122.426468 
	C588.834534,125.093300 588.365662,127.611351 585.014465,129.260239 
	C584.146301,129.687424 583.445374,130.454468 582.369080,131.250702 
z"/>
<path fill="#000000" opacity="1.000000" stroke="none" 
	d="
M272.184448,302.269165 
	C265.387848,305.495148 259.879517,310.976196 251.756302,311.247375 
	C251.713379,307.408142 254.239899,306.824921 256.179688,305.826080 
	C261.628479,303.020355 267.571777,301.217651 272.668243,297.688629 
	C273.737244,296.948395 275.013885,295.761627 276.130859,297.228119 
	C277.459686,298.972717 275.727875,299.851868 274.586090,300.740845 
	C273.934204,301.248413 273.194427,301.643158 272.184448,302.269165 
z"/>
<path fill="#000000" opacity="1.000000" stroke="none" 
	d="
M162.553131,299.125824 
	C161.080429,288.615387 161.358170,278.579285 163.499008,268.532257 
	C164.271896,282.392914 164.754974,296.257843 167.214767,310.004181 
	C163.247620,307.386017 163.683456,303.170288 162.553131,299.125824 
z"/>
<path fill="#000000" opacity="1.000000" stroke="none" 
	d="
M209.298874,270.459595 
	C210.688614,269.148285 211.170609,267.282410 214.002075,266.985443 
	C210.254364,276.672455 203.574997,283.505585 198.074844,291.168274 
	C197.370590,290.691833 196.666351,290.215393 195.962097,289.738983 
	C200.336853,283.402802 204.711624,277.066650 209.298874,270.459595 
z"/>
<path fill="#000000" opacity="1.000000" stroke="none" 
	d="
M558.193909,131.059601 
	C556.056519,128.680161 556.608948,126.641113 558.396423,124.048744 
	C564.067139,127.450569 567.331848,132.536896 570.201660,138.139877 
	C566.226807,135.822876 562.828918,132.718658 558.193909,131.059601 
z"/>
<path fill="#000000" opacity="1.000000" stroke="none" 
	d="
M581.524414,494.101440 
	C578.621765,493.812256 575.858704,497.184540 573.604736,493.478546 
	C572.710327,492.008026 572.291748,490.803864 574.273499,489.914886 
	C577.047668,488.670319 586.919006,490.689850 589.596924,493.306488 
	C587.067688,494.856842 584.421387,493.934479 581.524414,494.101440 
z"/>
<path fill="#000000" opacity="1.000000" stroke="none" 
	d="
M678.484314,369.272766 
	C679.093506,375.046570 679.393982,380.441223 677.572083,385.760895 
	C677.393188,379.620941 675.104675,373.597595 676.511230,367.391357 
	C678.027527,367.223480 678.053894,368.218445 678.484314,369.272766 
z"/>
<path fill="#000000" opacity="1.000000" stroke="none" 
	d="
M598.352783,490.334076 
	C600.382629,491.675018 601.642883,493.198395 599.124878,494.533936 
	C597.348999,495.475891 595.306152,497.920074 593.073059,495.250031 
	C591.567749,493.450226 591.231384,491.630310 594.189026,490.871582 
	C595.441223,490.550323 596.741455,490.415894 598.352783,490.334076 
z"/>
<path fill="#000000" opacity="1.000000" stroke="none" 
	d="
M415.024597,368.979401 
	C409.720581,368.346252 404.251648,368.714172 399.209747,366.202332 
	C404.541992,365.262482 409.721741,365.469543 414.775604,368.727661 
	C414.994659,369.018829 415.012604,368.991516 415.024597,368.979401 
z"/>
<path fill="#000000" opacity="1.000000" stroke="none" 
	d="
M401.990631,495.072021 
	C400.301270,494.870178 398.861755,494.550415 399.080109,492.832275 
	C399.243805,491.544464 400.592621,491.238037 401.714630,491.059082 
	C402.791840,490.887299 403.629974,491.444672 404.037903,492.431549 
	C404.713013,494.064819 403.975983,494.885040 401.990631,495.072021 
z"/>
<path fill="#000000" opacity="1.000000" stroke="none" 
	d="
M383.347992,646.604187 
	C386.679901,649.437988 390.656433,651.134216 391.959473,655.583801 
	C385.256348,651.513611 379.631439,645.987244 372.995087,641.782166 
	C377.052307,641.949890 380.006592,644.271484 383.347992,646.604187 
z"/>
</svg>