<?xml version="1.0" standalone="no"?>
<!DOCTYPE svg PUBLIC "-//W3C//DTD SVG 20010904//EN"
 "http://www.w3.org/TR/2001/REC-SVG-20010904/DTD/svg10.dtd">
<svg version="1.0" xmlns="http://www.w3.org/2000/svg"
 width="256.000000pt" height="256.000000pt" viewBox="0 0 256.000000 256.000000"
 preserveAspectRatio="xMidYMid meet">

<g transform="translate(0.000000,256.000000) scale(0.100000,-0.100000)"
fill="#000000" stroke="none">
<path d="M1321 2466 c61 -18 72 -25 64 -44 -5 -12 0 -11 17 4 38 36 64 44 115
39 35 -4 42 -3 28 4 -31 15 -73 13 -111 -5 -26 -12 -38 -14 -48 -5 -7 6 -35
13 -62 16 l-49 5 46 -14z"/>
<path d="M1088 2463 c7 -3 16 -2 19 1 4 3 -2 6 -13 5 -11 0 -14 -3 -6 -6z"/>
<path d="M1048 2453 c7 -3 16 -2 19 1 4 3 -2 6 -13 5 -11 0 -14 -3 -6 -6z"/>
<path d="M928 2414 c-39 -21 -35 -28 5 -8 37 19 44 24 31 24 -5 -1 -21 -8 -36
-16z"/>
<path d="M1363 2388 c-15 -20 -25 -38 -20 -38 3 0 12 11 21 25 17 26 16 35 -1
13z"/>
<path d="M1433 2379 c-12 -4 -26 -17 -32 -28 -20 -37 -11 -39 24 -4 39 39 41
45 8 32z"/>
<path d="M739 2283 c-13 -16 -12 -17 4 -4 9 7 17 15 17 17 0 8 -8 3 -21 -13z"/>
<path d="M1950 2129 c0 -3 15 -39 34 -80 57 -123 129 -345 149 -459 3 -14 3
-2 1 27 -7 95 -108 393 -163 484 -12 19 -21 31 -21 28z"/>
<path d="M578 2083 c-26 -31 -62 -87 -52 -81 11 7 77 98 71 98 -2 0 -11 -8
-19 -17z"/>
<path d="M495 1960 c-9 -16 -13 -30 -11 -30 3 0 12 14 21 30 9 17 13 30 11 30
-3 0 -12 -13 -21 -30z"/>
<path d="M556 1975 c-9 -26 -7 -32 5 -12 6 10 9 21 6 23 -2 3 -7 -2 -11 -11z"/>
<path d="M1218 1813 c-15 -19 -91 -184 -86 -189 2 -1 23 31 48 72 l45 75 6
-38 c5 -30 6 -24 8 30 0 37 -1 67 -2 67 -2 0 -11 -8 -19 -17z"/>
<path d="M502 1740 c0 -19 2 -27 5 -17 2 9 2 25 0 35 -3 9 -5 1 -5 -18z"/>
<path d="M432 1695 c0 -16 2 -22 5 -12 2 9 2 23 0 30 -3 6 -5 -1 -5 -18z"/>
<path d="M1455 1681 c-3 -12 -25 -45 -47 -73 -37 -48 -38 -50 -9 -23 33 30 77
103 68 112 -3 2 -8 -5 -12 -16z"/>
<path d="M1721 1654 c-1 -12 6 -37 14 -55 l16 -34 -7 35 c-4 19 -10 44 -15 55
-7 19 -8 19 -8 -1z"/>
<path d="M444 1638 c4 -13 -3 -19 -29 -24 -22 -4 -32 -10 -28 -19 4 -11 10
-11 29 -3 44 20 38 -1 -21 -69 -50 -58 -52 -62 -16 -28 35 32 41 35 31 15 -7
-14 -35 -49 -64 -79 -57 -61 -18 -34 68 47 49 46 49 46 42 17 -5 -17 -14 -66
-21 -110 -11 -77 -50 -168 -116 -275 -20 -34 -20 -34 0 -10 11 14 33 49 48 77
16 29 30 53 33 53 3 0 5 -30 4 -67 l-2 -68 6 62 c12 111 18 75 14 -93 -3 -101
0 -189 7 -227 15 -78 60 -187 77 -187 30 0 31 33 3 138 -40 147 -52 247 -43
362 l6 97 43 -5 c23 -2 51 0 61 6 15 9 12 10 -16 6 -34 -6 -35 -5 -52 44 -10
27 -18 69 -17 93 1 35 2 39 8 19 7 -24 7 -24 14 9 4 18 7 56 7 83 0 45 2 49
16 38 21 -19 34 -43 66 -135 16 -44 26 -68 23 -52 -7 36 3 34 17 -4 6 -16 12
-28 15 -26 8 9 -19 131 -37 170 -17 35 -18 38 -2 33 13 -4 13 -3 -2 7 -11 7
-41 32 -69 55 -33 29 -56 42 -68 39 -11 -3 -24 2 -30 11 -10 16 -10 16 -5 0z"/>
<path d="M1611 1613 c0 -17 -4 -39 -8 -49 -4 -12 -3 -15 5 -10 9 5 12 -8 14
-46 1 -37 2 -43 5 -18 2 19 -1 62 -6 95 -5 37 -9 48 -10 28z"/>
<path d="M1751 1544 c0 -11 3 -14 6 -6 3 7 2 16 -1 19 -3 4 -6 -2 -5 -13z"/>
<path d="M2148 1420 c2 -74 6 -137 8 -139 7 -8 2 174 -6 224 -4 30 -5 -3 -2
-85z"/>
<path d="M1841 1418 l-1 -66 -39 -7 c-40 -7 -117 -51 -143 -82 -12 -15 -11
-15 12 -3 l25 13 -22 -25 c-29 -30 -29 -40 -1 -64 15 -12 18 -13 10 -3 -10 13
-9 19 4 30 14 11 18 10 31 -6 14 -19 15 -18 11 13 -5 34 8 44 19 15 9 -22 40
-53 47 -46 3 4 5 25 5 47 -1 23 -4 31 -6 19 l-4 -22 -25 22 -25 22 33 7 c60
12 99 -40 76 -103 -7 -19 -3 -17 21 11 35 42 50 34 32 -18 -22 -59 -23 -68 -9
-47 12 18 14 16 19 -30 5 -36 7 -22 6 48 -1 70 3 101 12 106 9 6 2 15 -23 30
-20 13 -36 27 -36 32 0 13 18 11 23 -3 3 -7 6 -8 6 -3 1 6 -12 49 -28 95 l-29
85 -1 -67z m34 -57 c5 -17 4 -22 -6 -19 -8 3 -15 18 -17 34 -4 33 11 24 23
-15z m-60 -51 c3 -5 -3 -10 -14 -10 -11 0 -23 5 -26 10 -3 6 3 10 14 10 11 0
23 -4 26 -10z m-115 -70 c0 -5 -7 -10 -16 -10 -8 0 -12 5 -9 10 3 6 10 10 16
10 5 0 9 -4 9 -10z"/>
<path d="M309 1443 c-13 -16 -12 -17 4 -4 9 7 17 15 17 17 0 8 -8 3 -21 -13z"/>
<path d="M1305 1450 c28 -12 63 -12 70 0 4 6 -12 10 -42 9 -36 0 -43 -3 -28
-9z"/>
<path d="M1668 1414 c-5 -21 -5 -21 46 -5 35 11 44 17 29 19 -12 2 -31 -1 -42
-7 -14 -8 -20 -8 -23 1 -3 7 -7 3 -10 -8z"/>
<path d="M400 1378 c-7 -24 -25 -69 -41 -100 -16 -32 -27 -58 -24 -58 14 0 93
186 83 196 -3 2 -11 -15 -18 -38z"/>
<path d="M228 1368 c6 -6 18 -8 28 -6 14 3 12 5 -9 10 -19 3 -25 2 -19 -4z"/>
<path d="M1646 1365 c-9 -26 -7 -32 5 -12 6 10 9 21 6 23 -2 3 -7 -2 -11 -11z"/>
<path d="M735 1334 c-9 -14 -34 -43 -56 -65 -21 -21 -39 -45 -39 -51 0 -7 11
4 25 25 18 25 33 37 49 37 19 0 25 8 34 40 5 22 9 40 7 40 -1 0 -10 -12 -20
-26z"/>
<path d="M832 1320 c0 -19 2 -27 5 -17 2 9 2 25 0 35 -3 9 -5 1 -5 -18z"/>
<path d="M1110 1341 c0 -6 -17 -21 -37 -34 -42 -27 -103 -40 -103 -23 0 6 -4
6 -8 -2 -5 -7 -6 -27 -3 -45 4 -31 5 -31 11 -7 l6 25 19 -30 c23 -35 62 -75
75 -75 5 0 16 -10 24 -22 12 -17 16 -18 16 -6 0 8 -7 21 -15 28 -17 14 -20 70
-4 70 6 0 8 -7 5 -16 -5 -13 -4 -14 7 -6 8 7 17 9 20 5 4 -3 13 0 21 6 10 8
16 9 21 1 3 -5 10 -10 16 -10 15 0 10 32 -8 53 -17 19 -17 20 -1 14 12 -4 15
-2 12 8 -4 10 2 13 21 11 28 -3 45 -21 44 -46 0 -10 -5 -8 -16 8 -21 30 -35
28 -27 -5 8 -30 33 -55 47 -46 5 3 7 23 5 44 -3 38 4 50 17 29 4 -6 15 -8 25
-5 11 3 31 -5 51 -21 29 -22 28 -20 -5 12 -23 22 -41 33 -44 26 -2 -7 -8 -12
-13 -12 -4 0 -6 6 -3 14 6 14 -21 26 -101 45 -22 5 -48 12 -57 16 -11 4 -18 3
-18 -4z m45 -31 c3 -5 1 -10 -4 -10 -6 0 -11 5 -11 10 0 6 2 10 4 10 3 0 8 -4
11 -10z m-35 -16 c0 -8 -5 -12 -10 -9 -6 4 -8 11 -5 16 9 14 15 11 15 -7z m20
-23 c0 -14 -18 -23 -31 -15 -8 4 -7 9 2 15 18 11 29 11 29 0z"/>
<path d="M510 1334 c0 -17 38 -47 52 -41 9 4 7 6 -4 6 -9 1 -24 11 -32 23 -9
12 -16 18 -16 12z"/>
<path d="M770 1313 l-21 -27 20 -8 c14 -5 21 -16 21 -33 0 -31 30 -168 36
-163 2 3 -3 38 -10 79 -8 41 -16 98 -18 126 -2 29 -4 53 -5 53 -1 0 -11 -12
-23 -27z"/>
<path d="M590 1310 c-9 -6 -10 -10 -3 -10 6 0 15 5 18 10 8 12 4 12 -15 0z"/>
<path d="M620 1282 c-23 -22 -23 -24 -3 -13 12 6 25 16 28 22 13 20 0 15 -25
-9z"/>
<path d="M841 1249 c0 -19 5 -43 10 -54 6 -13 7 -4 3 30 -8 60 -14 72 -13 24z"/>
<path d="M730 1246 c0 -2 11 -6 25 -8 13 -3 22 -1 19 3 -5 9 -44 13 -44 5z"/>
<path d="M308 1188 c-22 -34 -42 -74 -31 -63 14 15 55 85 50 85 -3 0 -11 -10
-19 -22z"/>
<path d="M631 1184 c0 -11 3 -14 6 -6 3 7 2 16 -1 19 -3 4 -6 -2 -5 -13z"/>
<path d="M2139 1165 c-2 -22 -2 -80 1 -130 l5 -90 7 60 c4 33 4 92 0 130 -7
63 -8 66 -13 30z"/>
<path d="M1642 1170 c0 -14 2 -19 5 -12 2 6 2 18 0 25 -3 6 -5 1 -5 -13z"/>
<path d="M2030 1170 c-6 -11 -8 -20 -6 -20 3 0 10 9 16 20 6 11 8 20 6 20 -3
0 -10 -9 -16 -20z"/>
<path d="M1210 1174 c0 -17 17 -36 24 -26 3 5 -1 15 -9 22 -8 7 -15 9 -15 4z"/>
<path d="M626 1115 c8 -36 31 -95 37 -95 5 0 -33 113 -40 120 -2 3 -1 -9 3
-25z"/>
<path d="M1866 1083 c-6 -14 -5 -15 5 -6 7 7 10 15 7 18 -3 3 -9 -2 -12 -12z"/>
<path d="M834 1045 c4 -16 12 -34 17 -40 5 -5 4 6 -2 25 -15 45 -24 54 -15 15z"/>
<path d="M2092 1025 c-12 -25 -20 -45 -17 -45 7 0 47 81 43 86 -3 2 -14 -17
-26 -41z"/>
<path d="M1856 1029 c-9 -47 -6 -69 5 -31 11 37 28 34 30 -6 2 -24 2 -24 6 -4
3 12 -4 33 -15 47 l-20 25 -6 -31z"/>
<path d="M856 975 c-3 -9 -20 -22 -38 -30 -33 -14 -33 -14 -6 -15 15 0 30 5
33 10 4 6 16 8 27 4 18 -5 19 -4 8 18 -17 31 -17 31 -24 13z"/>
<path d="M2021 926 c-24 -25 -41 -50 -38 -58 4 -9 6 -9 6 3 1 9 15 28 31 43
35 30 38 27 43 -49 2 -36 4 -29 5 28 1 42 1 77 -1 77 -2 0 -22 -20 -46 -44z"/>
<path d="M915 932 c10 -17 22 -29 27 -26 4 3 22 -4 38 -16 17 -12 30 -17 30
-11 0 6 -4 11 -9 11 -4 0 -30 16 -56 37 l-48 36 18 -31z"/>
<path d="M1835 941 c-3 -11 -25 -37 -48 -56 -32 -28 -36 -34 -17 -27 26 9 88
87 78 98 -4 3 -9 -4 -13 -15z"/>
<path d="M1885 899 c-4 -33 -5 -62 -3 -65 8 -7 58 36 58 49 -1 7 -9 2 -19 -10
-29 -34 -33 -28 -26 32 4 30 5 55 2 55 -3 0 -8 -27 -12 -61z"/>
<path d="M1035 860 c3 -5 11 -10 16 -10 6 0 7 5 4 10 -3 6 -11 10 -16 10 -6 0
-7 -4 -4 -10z"/>
<path d="M1714 834 c-18 -14 -18 -15 4 -4 12 6 22 13 22 15 0 8 -5 6 -26 -11z"/>
<path d="M1017 833 c-4 -3 -7 -13 -7 -22 1 -13 3 -13 11 2 11 19 8 33 -4 20z"/>
<path d="M1114 825 c11 -8 23 -15 28 -15 4 0 6 -6 4 -12 -1 -7 -1 -10 1 -5 3
4 9 7 14 7 6 0 8 -4 5 -9 -7 -11 49 -35 66 -28 7 3 3 6 -9 6 -12 1 -26 7 -30
15 -4 7 -28 23 -53 35 -25 12 -36 15 -26 6z"/>
<path d="M1662 812 c-8 -2 -10 -8 -4 -15 22 -28 23 -68 3 -93 l-20 -25 -17 26
c-10 15 -35 34 -58 43 l-40 16 29 13 c24 11 25 13 5 7 -14 -3 -60 -9 -102 -11
l-78 -5 33 -22 c31 -22 32 -22 45 -4 20 28 53 19 69 -19 l12 -31 -47 0 c-26 0
-49 3 -52 8 -3 4 -18 9 -35 11 -16 2 -36 7 -42 12 -15 11 -38 -5 -55 -37 -11
-21 -10 -21 13 1 18 16 33 20 59 17 55 -7 57 -18 15 -79 -32 -45 -41 -53 -48
-40 -5 9 -6 22 -4 29 4 11 -31 36 -53 38 -3 1 -29 9 -57 19 -60 20 -71 17 -18
-6 43 -17 69 -41 60 -55 -3 -5 -2 -10 2 -10 5 0 17 -16 27 -35 10 -19 23 -32
27 -29 5 3 10 -12 11 -33 0 -21 2 -42 3 -48 2 -5 3 -17 4 -25 1 -12 3 -13 10
-1 6 10 10 10 16 1 8 -13 1 -23 -20 -26 -16 -2 -108 100 -126 140 -11 23 -9
29 11 51 27 29 20 34 -10 8 -11 -10 -20 -25 -20 -35 0 -27 -19 -31 -29 -6 -7
17 -10 -2 -9 -67 l0 -90 15 63 c8 34 18 62 23 62 16 0 130 -144 136 -171 4
-16 12 -26 22 -25 10 1 18 -8 20 -21 3 -18 -2 -23 -17 -23 -14 0 -21 -6 -21
-18 0 -12 -19 -27 -55 -45 l-56 -27 -39 31 c-23 18 -41 42 -43 58 -2 14 -5 1
-6 -29 -1 -30 -7 -78 -15 -107 l-14 -51 34 -18 c35 -19 41 -28 24 -39 -5 -3
-15 -15 -20 -26 -11 -19 -5 -19 317 -19 286 1 325 3 302 15 -23 13 -129 171
-133 201 -1 7 -10 21 -19 32 -9 10 -17 22 -17 27 0 4 -8 13 -17 20 -15 11 -15
15 -3 30 13 16 14 16 21 -2 4 -13 10 -2 18 36 12 55 7 77 -9 51 -8 -12 -10
-11 -10 7 0 12 5 23 11 25 8 3 8 25 0 78 -5 40 -7 78 -4 83 3 6 2 7 -3 4 -6
-3 -15 3 -22 14 -15 23 -4 25 26 3 19 -13 22 -25 24 -87 1 -65 2 -67 7 -27 l7
45 11 -35 c6 -19 12 -29 12 -21 1 11 4 11 19 0 15 -12 15 -11 -1 8 -14 15 -17
30 -12 55 5 26 2 38 -14 52 -23 21 -27 47 -10 78 9 17 13 18 20 7 11 -17 11
16 1 77 -5 27 -11 39 -20 36z m-42 -117 c11 -18 20 -43 20 -55 0 -22 -1 -22
-18 -7 -10 10 -24 17 -30 17 -7 0 -12 5 -12 11 0 6 -9 22 -20 36 -11 14 -18
29 -15 33 10 17 56 -4 75 -35z m-76 -56 c15 -12 25 -23 23 -26 -7 -6 -87 28
-87 38 0 16 37 9 64 -12z m-227 -34 c9 -24 -1 -27 -15 -5 -8 13 -8 20 -2 20 6
0 13 -7 17 -15z m287 -48 c6 -26 5 -27 -14 -15 -21 13 -24 25 -14 53 8 20 17
8 28 -38z m-182 18 c-2 -14 0 -25 6 -25 6 0 12 8 14 18 2 9 11 -12 20 -48 17
-64 17 -65 -4 -87 -12 -13 -24 -23 -27 -23 -3 0 -13 18 -22 39 -12 28 -14 42
-6 50 8 8 7 11 -4 11 -9 0 -24 8 -33 19 -16 18 -16 20 16 45 41 32 46 32 40 1z
m92 -90 c-16 -41 -42 9 -42 80 l0 40 24 -52 c13 -29 21 -60 18 -68z m46 93 c0
-6 -6 -5 -15 2 -8 7 -15 14 -15 16 0 2 7 1 15 -2 8 -4 15 -11 15 -16z m-10
-84 c0 -8 2 -14 4 -14 2 0 11 -3 20 -6 12 -4 16 0 16 15 0 12 5 21 11 21 6 0
9 -12 7 -27 -2 -23 -8 -28 -31 -28 -30 -1 -41 8 -49 42 -4 16 -2 20 8 16 8 -3
14 -11 14 -19z m-370 -284 c-17 -31 -27 -31 -22 0 3 19 9 27 18 23 10 -4 11
-10 4 -23z"/>
<path d="M1570 704 c14 -16 26 -31 28 -33 1 -2 2 2 2 10 0 8 -13 23 -28 33
l-27 19 25 -29z"/>
<path d="M1867 778 c-13 -23 -14 -28 -3 -19 18 15 34 7 46 -23 l9 -21 0 22 c1
12 -8 27 -19 33 -11 6 -17 16 -14 25 10 25 0 16 -19 -17z"/>
<path d="M2051 768 c0 -9 -4 -25 -7 -35 -5 -17 -5 -17 6 0 6 10 9 25 7 35 -4
15 -5 15 -6 0z"/>
<path d="M1122 750 c-7 -11 -19 -20 -27 -20 -8 0 -15 -4 -15 -9 0 -16 35 -1
49 21 7 11 11 22 9 24 -2 1 -9 -6 -16 -16z"/>
<path d="M1256 751 c3 -3 32 -8 64 -11 33 -3 56 -3 52 1 -8 8 -124 18 -116 10z"/>
<path d="M1825 716 c-22 -34 -17 -40 15 -16 19 14 22 22 13 31 -8 8 -15 5 -28
-15z"/>
<path d="M2060 710 c-12 -16 -19 -30 -16 -30 2 0 14 14 26 30 12 17 19 30 16
30 -2 0 -14 -13 -26 -30z"/>
<path d="M1980 696 c0 -14 4 -27 8 -30 5 -3 6 8 4 25 -5 35 -12 38 -12 5z"/>
<path d="M2020 690 c-6 -11 -8 -20 -6 -20 3 0 10 9 16 20 6 11 8 20 6 20 -3 0
-10 -9 -16 -20z"/>
<path d="M1150 685 c0 -15 56 -55 75 -55 6 1 -7 10 -28 21 -25 13 -37 25 -33
35 3 8 1 14 -4 14 -6 0 -10 -7 -10 -15z"/>
<path d="M361 664 c0 -11 3 -14 6 -6 3 7 2 16 -1 19 -3 4 -6 -2 -5 -13z"/>
<path d="M1678 673 c7 -3 16 -2 19 1 4 3 -2 6 -13 5 -11 0 -14 -3 -6 -6z"/>
<path d="M1367 664 c-4 -4 -4 -11 -1 -15 8 -14 31 -10 38 6 5 15 -24 22 -37 9z"/>
<path d="M1891 643 c0 -16 3 -22 6 -15 4 10 11 8 29 -9 13 -12 24 -18 24 -12
0 5 -13 22 -30 36 l-30 27 1 -27z"/>
<path d="M1318 653 c7 -3 16 -2 19 1 4 3 -2 6 -13 5 -11 0 -14 -3 -6 -6z"/>
<path d="M2001 614 c0 -11 3 -14 6 -6 3 7 2 16 -1 19 -3 4 -6 -2 -5 -13z"/>
<path d="M315 553 c-16 -31 -41 -70 -54 -87 l-25 -31 26 23 c25 23 94 140 86
147 -2 2 -17 -21 -33 -52z"/>
<path d="M411 563 c-10 -26 -10 -27 4 -9 8 11 15 23 15 28 0 15 -7 8 -19 -19z"/>
<path d="M1841 553 c0 -20 -9 -37 -23 -47 -12 -9 -18 -16 -12 -16 22 0 46 38
41 67 -4 28 -4 28 -6 -4z"/>
<path d="M622 495 c0 -38 3 -61 5 -51 4 15 7 16 14 5 6 -9 7 0 3 26 -15 84
-22 91 -22 20z"/>
<path d="M2020 554 c0 -35 122 -174 153 -174 6 0 -1 8 -18 19 -41 25 -79 67
-109 121 -14 25 -26 40 -26 34z"/>
<path d="M1883 533 c-7 -3 -13 -9 -13 -14 0 -6 5 -7 11 -3 8 4 10 -12 7 -54
-1 -34 1 -57 5 -53 14 14 4 128 -10 124z"/>
<path d="M350 484 c-25 -25 -38 -42 -30 -39 14 7 87 85 78 85 -2 0 -24 -21
-48 -46z"/>
<path d="M1671 453 c-1 -6 -4 -20 -7 -30 -5 -17 -5 -17 6 0 6 10 9 23 6 30 -3
9 -5 9 -5 0z"/>
<path d="M200 425 c-14 -8 -20 -14 -14 -15 5 0 19 7 30 15 24 18 16 19 -16 0z"/>
<path d="M513 361 c-6 -28 -6 -54 -2 -57 5 -3 9 4 9 15 0 29 17 35 26 9 7 -23
70 -88 85 -88 11 0 10 8 -1 35 -8 19 -9 19 -9 1 -1 -33 -58 29 -79 87 l-19 50
-10 -52z"/>
<path d="M1650 391 c0 -5 5 -13 10 -16 6 -3 10 -2 10 4 0 5 -4 13 -10 16 -5 3
-10 2 -10 -4z"/>
<path d="M1867 383 c-3 -5 1 -19 9 -33 l14 -25 -6 30 c-8 35 -10 39 -17 28z"/>
<path d="M2210 380 c-8 -5 -12 -11 -9 -14 2 -3 11 -1 19 4 8 5 12 11 9 14 -2
3 -11 1 -19 -4z"/>
<path d="M613 340 c0 -25 2 -35 4 -22 2 12 2 32 0 45 -2 12 -4 2 -4 -23z"/>
<path d="M2078 358 c5 -5 16 -8 23 -6 8 3 3 7 -10 11 -17 4 -21 3 -13 -5z"/>
<path d="M850 350 c0 -18 34 -76 65 -110 20 -21 23 -32 18 -72 -5 -42 -9 -48
-34 -53 -22 -5 -29 -12 -28 -28 0 -15 2 -17 6 -7 7 19 23 30 44 30 13 0 15
-10 13 -57 l-3 -58 9 49 c5 26 11 55 14 63 4 9 2 11 -6 7 -8 -5 -9 8 -4 47 4
30 8 77 10 104 2 28 1 31 -1 8 -2 -24 -7 -43 -11 -43 -7 0 -45 54 -74 105 -9
16 -17 23 -18 15z"/>
<path d="M1672 340 c-1 -41 11 -55 48 -58 25 -2 44 4 64 19 21 17 30 19 36 9
5 -8 9 -1 12 19 l5 32 -31 -29 c-17 -16 -42 -32 -55 -35 -34 -8 -69 12 -74 42
l-4 26 -1 -25z"/>
<path d="M2168 353 c7 -3 16 -2 19 1 4 3 -2 6 -13 5 -11 0 -14 -3 -6 -6z"/>
<path d="M686 337 c3 -10 9 -15 12 -12 3 3 0 11 -7 18 -10 9 -11 8 -5 -6z"/>
<path d="M843 285 c0 -22 2 -30 4 -17 2 12 2 30 0 40 -3 9 -5 -1 -4 -23z"/>
<path d="M702 280 c0 -19 2 -27 5 -17 2 9 2 25 0 35 -3 9 -5 1 -5 -18z"/>
<path d="M797 281 c-3 -15 -18 -43 -33 -62 l-28 -34 32 29 c18 17 32 36 32 43
0 8 5 11 10 8 6 -3 10 -14 10 -23 0 -9 9 -30 20 -47 l21 -30 -7 30 c-4 17 -13
39 -20 50 -8 11 -14 27 -14 37 0 29 -17 29 -23 -1z"/>
<path d="M1952 268 c-10 -30 -10 -31 3 -14 13 17 21 46 12 46 -1 0 -8 -15 -15
-32z"/>
<path d="M1809 262 c-3 -20 -2 -29 4 -23 5 5 7 19 5 32 -3 20 -5 19 -9 -9z"/>
<path d="M1990 261 c0 -18 -5 -42 -11 -53 -7 -14 -8 -18 0 -14 16 10 32 79 21
90 -7 7 -10 -1 -10 -23z"/>
<path d="M1892 231 l-2 -54 25 23 c29 27 34 41 6 16 -19 -18 -20 -17 -24 26
-3 41 -4 40 -5 -11z"/>
<path d="M665 150 c-3 -5 -1 -10 4 -10 6 0 11 5 11 10 0 6 -2 10 -4 10 -3 0
-8 -4 -11 -10z"/>
<path d="M1735 133 l-17 -28 23 22 c12 12 20 25 17 28 -3 3 -13 -7 -23 -22z"/>
</g>
</svg>
