<svg xmlns="http://www.w3.org/2000/svg" version="1.1" xmlns:xlink="http://www.w3.org/1999/xlink" xmlns:svgjs="http://svgjs.com/svgjs" width="4096" height="250" preserveAspectRatio="none" viewBox="0 0 4096 250"><g mask="url(&quot;#SvgjsMask1055&quot;)" fill="none"><path d="M 0,48 C 91.2,42.6 273.6,21.6 456,21 C 638.4,20.4 729.6,41.8 912,45 C 1094.4,48.2 1185.6,32.8 1368,37 C 1550.4,41.2 1641.6,70 1824,66 C 2006.4,62 2097.6,19.4 2280,17 C 2462.4,14.6 2553.6,56.4 2736,54 C 2918.4,51.6 3009.6,2.2 3192,5 C 3374.4,7.8 3467.2,68.8 3648,68 C 3828.8,67.2 4006.4,14.4 4096,1L4096 250L0 250z" fill="rgba(255, 255, 255, 0.32)"></path><path d="M 0,120 C 82,125.4 246,153.4 410,147 C 574,140.6 656,90.6 820,88 C 984,85.4 1066,132.4 1230,134 C 1394,135.6 1476,91.4 1640,96 C 1804,100.6 1886,153 2050,157 C 2214,161 2296,120.2 2460,116 C 2624,111.8 2706,142.2 2870,136 C 3034,129.8 3116,82 3280,85 C 3444,88 3526.8,145.8 3690,151 C 3853.2,156.2 4014.8,119 4096,111L4096 250L0 250z" fill="rgba(255, 255, 255, 0.45)"></path><path d="M 0,197 C 102.4,201 307.2,222.2 512,217 C 716.8,211.8 819.2,172 1024,171 C 1228.8,170 1331.2,210.8 1536,212 C 1740.8,213.2 1843.2,174.2 2048,177 C 2252.8,179.8 2355.2,223.6 2560,226 C 2764.8,228.4 2867.2,192 3072,189 C 3276.8,186 3379.2,211.6 3584,211 C 3788.8,210.4 3993.6,191 4096,186L4096 250L0 250z" fill="rgba(255, 255, 255, 1)"></path></g><defs><mask id="SvgjsMask1055"><rect width="4096" height="250" fill="#ffffff"></rect></mask></defs></svg>